<svg xmlns="http://www.w3.org/2000/svg" viewBox="0 0 680 572" width="680" height="572" font-family="Segoe UI,Arial,sans-serif"><defs><marker id="ah_pass" viewBox="0 0 10 10" refX="8" refY="5" markerWidth="6.5" markerHeight="6.5" orient="auto-start-reverse"><path d="M0,0 L10,5 L0,10 z" fill="#ffd54a"/></marker><marker id="ah_run" viewBox="0 0 10 10" refX="8" refY="5" markerWidth="6.5" markerHeight="6.5" orient="auto-start-reverse"><path d="M0,0 L10,5 L0,10 z" fill="#ffffff"/></marker><marker id="ah_drive" viewBox="0 0 10 10" refX="8" refY="5" markerWidth="6.5" markerHeight="6.5" orient="auto-start-reverse"><path d="M0,0 L10,5 L0,10 z" fill="#7ee0ff"/></marker><marker id="ah_white" viewBox="0 0 10 10" refX="8" refY="5" markerWidth="6.5" markerHeight="6.5" orient="auto-start-reverse"><path d="M0,0 L10,5 L0,10 z" fill="#ffffff"/></marker></defs><rect x="0.0" y="0.0" width="680.0" height="571.9" fill="#15202b"/><rect x="26.0" y="76.0" width="628.0" height="45.1" fill="#2f8a3e"/><rect x="26.0" y="120.6" width="628.0" height="45.1" fill="#2a7d36"/><rect x="26.0" y="165.2" width="628.0" height="45.1" fill="#2f8a3e"/><rect x="26.0" y="209.8" width="628.0" height="45.1" fill="#2a7d36"/><rect x="26.0" y="254.4" width="628.0" height="45.1" fill="#2f8a3e"/><rect x="26.0" y="298.9" width="628.0" height="45.1" fill="#2a7d36"/><rect x="26.0" y="343.5" width="628.0" height="45.1" fill="#2f8a3e"/><rect x="26.0" y="388.1" width="628.0" height="45.1" fill="#2a7d36"/><rect x="26.0" y="432.7" width="628.0" height="45.1" fill="#2f8a3e"/><rect x="26.0" y="477.3" width="628.0" height="45.1" fill="#2a7d36"/><rect x="26.0" y="76.0" width="628.0" height="445.9" fill="none" stroke="#1f5f2a" stroke-width="2"/><rect x="0.0" y="0.0" width="680.0" height="50.0" fill="#15202b"/><text x="340.0" y="24.0" font-family="Segoe UI,Arial,sans-serif" font-size="17" font-weight="800" fill="#ffffff" text-anchor="middle" >Tarea 9 — Juego de posición 5v5+3 con zonas de finalización</text><text x="340.0" y="40.0" font-family="Segoe UI,Arial,sans-serif" font-size="11" font-weight="500" fill="#9fb3c8" text-anchor="middle" >5v5 + 3 comodines (banda+banda+central) · rectángulo 35×25 m</text><rect x="0.0" y="547.9" width="680.0" height="24.0" fill="#15202b"/><text x="668.0" y="563.9" font-family="Segoe UI,Arial,sans-serif" font-size="10" font-weight="700" fill="#8aa0b6" text-anchor="end" >MISTER ÉLITE · Moisés Díaz</text><text x="12.0" y="563.9" font-family="Segoe UI,Arial,sans-serif" font-size="10" font-weight="600" fill="#7f93a8" text-anchor="start" >Juego de posición · MISTER ÉLITE</text><rect x="101.4" y="138.4" width="477.3" height="312.1" rx="3" fill="none" stroke="#ffffff" stroke-width="2.6"/><path d="M101.4,443.5 l5,11 l-10,0 z" fill="#ff9800" stroke="#7a4f00" stroke-width="1"/><path d="M101.4,131.4 l5,11 l-10,0 z" fill="#ff9800" stroke="#7a4f00" stroke-width="1"/><path d="M578.6,443.5 l5,11 l-10,0 z" fill="#ff9800" stroke="#7a4f00" stroke-width="1"/><path d="M578.6,131.4 l5,11 l-10,0 z" fill="#ff9800" stroke="#7a4f00" stroke-width="1"/><rect x="101.4" y="138.4" width="477.3" height="31.2" rx="6" fill="#ffd54a" fill-opacity="0.16" stroke="#ffd54a" stroke-width="2" stroke-dasharray="6 5"/><text x="340.0" y="157.0" font-family="Segoe UI,Arial,sans-serif" font-size="10.5" font-weight="700" fill="#fff" text-anchor="middle" >zona finalización</text><rect x="101.4" y="419.3" width="477.3" height="31.2" rx="6" fill="#ffd54a" fill-opacity="0.16" stroke="#ffd54a" stroke-width="2" stroke-dasharray="6 5"/><text x="340.0" y="437.9" font-family="Segoe UI,Arial,sans-serif" font-size="10.5" font-weight="700" fill="#fff" text-anchor="middle" >zona finalización</text><line x1="170.4" y1="450.5" x2="170.4" y2="138.4" stroke="#dfe7ef" stroke-width="2.0" stroke-dasharray="3 6" opacity="1"/><line x1="509.6" y1="450.5" x2="509.6" y2="138.4" stroke="#dfe7ef" stroke-width="2.0" stroke-dasharray="3 6" opacity="1"/><g><circle cx="132.8" cy="321.2" r="15" fill="#1565c0" stroke="#0d3c75" stroke-width="2.5"/><text x="132.8" y="325.2" font-family="Segoe UI,Arial" font-size="11.5" font-weight="800" fill="#fff" text-anchor="middle">P1</text></g><g><circle cx="277.2" cy="258.8" r="15" fill="#1565c0" stroke="#0d3c75" stroke-width="2.5"/><text x="277.2" y="262.8" font-family="Segoe UI,Arial" font-size="11.5" font-weight="800" fill="#fff" text-anchor="middle">P2</text></g><g><circle cx="365.1" cy="294.5" r="15" fill="#1565c0" stroke="#0d3c75" stroke-width="2.5"/><text x="365.1" y="298.5" font-family="Segoe UI,Arial" font-size="11.5" font-weight="800" fill="#fff" text-anchor="middle">P3</text></g><g><circle cx="465.6" cy="321.2" r="15" fill="#1565c0" stroke="#0d3c75" stroke-width="2.5"/><text x="465.6" y="325.2" font-family="Segoe UI,Arial" font-size="11.5" font-weight="800" fill="#fff" text-anchor="middle">P4</text></g><g><circle cx="415.4" cy="205.3" r="15" fill="#1565c0" stroke="#0d3c75" stroke-width="2.5"/><text x="415.4" y="209.3" font-family="Segoe UI,Arial" font-size="11.5" font-weight="800" fill="#fff" text-anchor="middle">P5</text></g><g><circle cx="239.5" cy="285.6" r="15" fill="#c62828" stroke="#7f1414" stroke-width="2.5"/><text x="239.5" y="289.6" font-family="Segoe UI,Arial" font-size="11.5" font-weight="800" fill="#fff" text-anchor="middle">D1</text></g><g><circle cx="327.4" cy="249.9" r="15" fill="#c62828" stroke="#7f1414" stroke-width="2.5"/><text x="327.4" y="253.9" font-family="Segoe UI,Arial" font-size="11.5" font-weight="800" fill="#fff" text-anchor="middle">D2</text></g><g><circle cx="377.7" cy="214.2" r="15" fill="#c62828" stroke="#7f1414" stroke-width="2.5"/><text x="377.7" y="218.2" font-family="Segoe UI,Arial" font-size="11.5" font-weight="800" fill="#fff" text-anchor="middle">D3</text></g><g><circle cx="440.5" cy="285.6" r="15" fill="#c62828" stroke="#7f1414" stroke-width="2.5"/><text x="440.5" y="289.6" font-family="Segoe UI,Arial" font-size="11.5" font-weight="800" fill="#fff" text-anchor="middle">D4</text></g><g><circle cx="314.9" cy="392.6" r="15" fill="#c62828" stroke="#7f1414" stroke-width="2.5"/><text x="314.9" y="396.6" font-family="Segoe UI,Arial" font-size="11.5" font-weight="800" fill="#fff" text-anchor="middle">D5</text></g><g><circle cx="101.4" cy="303.4" r="15" fill="#f5a623" stroke="#9c6510" stroke-width="2.5"/><text x="101.4" y="307.4" font-family="Segoe UI,Arial" font-size="11.5" font-weight="800" fill="#fff" text-anchor="middle">C1</text></g><text x="101.4" y="284.4" font-family="Segoe UI,Arial,sans-serif" font-size="9.5" font-weight="600" fill="#fff5cc" text-anchor="middle" >banda</text><g><circle cx="578.6" cy="294.5" r="15" fill="#f5a623" stroke="#9c6510" stroke-width="2.5"/><text x="578.6" y="298.5" font-family="Segoe UI,Arial" font-size="11.5" font-weight="800" fill="#fff" text-anchor="middle">C2</text></g><text x="578.6" y="275.5" font-family="Segoe UI,Arial,sans-serif" font-size="9.5" font-weight="600" fill="#fff5cc" text-anchor="middle" >banda</text><g><circle cx="314.9" cy="321.2" r="15" fill="#f5a623" stroke="#9c6510" stroke-width="2.5"/><text x="314.9" y="325.2" font-family="Segoe UI,Arial" font-size="11.5" font-weight="800" fill="#fff" text-anchor="middle">C3</text></g><text x="314.9" y="302.2" font-family="Segoe UI,Arial,sans-serif" font-size="9.5" font-weight="600" fill="#fff5cc" text-anchor="middle" >central</text><circle cx="132.8" cy="334.6" r="6.0" fill="#fafafa" stroke="#222" stroke-width="1.4"/><path d="M132.8,328.6 l3.0,4.2 l-4.8,0 z" fill="#222"/><line x1="132.8" y1="321.2" x2="101.4" y2="303.4" stroke="#ffd54a" stroke-width="2.8" stroke-dasharray="7 5" marker-end="url(#ah_pass)"/><text x="117.1" y="307.3" font-family="Segoe UI,Arial,sans-serif" font-size="9.5" font-weight="700" fill="#ffd54a" text-anchor="middle" >banda</text><line x1="101.4" y1="303.4" x2="314.9" y2="321.2" stroke="#ffd54a" stroke-width="2.8" stroke-dasharray="7 5" marker-end="url(#ah_pass)"/><text x="208.1" y="307.3" font-family="Segoe UI,Arial,sans-serif" font-size="9.5" font-weight="700" fill="#ffd54a" text-anchor="middle" >centro</text><line x1="314.9" y1="321.2" x2="415.4" y2="205.3" stroke="#ffd54a" stroke-width="2.8" stroke-dasharray="7 5" marker-end="url(#ah_pass)"/><line x1="415.4" y1="205.3" x2="365.1" y2="156.3" stroke="#ffffff" stroke-width="2.8" marker-end="url(#ah_run)"/><text x="390.2" y="175.8" font-family="Segoe UI,Arial,sans-serif" font-size="9.5" font-weight="700" fill="#ffffff" text-anchor="middle" >finaliza</text><text x="390.2" y="468.4" font-family="Segoe UI,Arial,sans-serif" font-size="9.5" font-weight="600" fill="#fff5cc" text-anchor="middle" >Toca banda y centro · controla el balón PARADO en la zona</text><g><rect x="32" y="409.88" width="168" height="118" rx="7" fill="#15202b" fill-opacity="0.82" stroke="#3a4a5a" stroke-width="1"/><text x="42" y="423.88" font-family="Segoe UI,Arial" font-size="10" font-weight="800" fill="#9fb3c8">LEYENDA</text><circle cx="49" cy="435.88" r="6" fill="#1565c0"/><text x="78" y="438.88" font-family="Segoe UI,Arial" font-size="10.5" fill="#e6edf3">propio</text><circle cx="49" cy="452.88" r="6" fill="#c62828"/><text x="78" y="455.88" font-family="Segoe UI,Arial" font-size="10.5" fill="#e6edf3">rival</text><circle cx="49" cy="469.88" r="6" fill="#f5a623"/><text x="78" y="472.88" font-family="Segoe UI,Arial" font-size="10.5" fill="#e6edf3">comodín</text><line x1="44" y1="486.88" x2="70" y2="486.88" stroke="#ffd54a" stroke-width="3" stroke-dasharray="6 4"/><text x="78" y="489.88" font-family="Segoe UI,Arial" font-size="10.5" fill="#e6edf3">pase</text><line x1="44" y1="503.88" x2="70" y2="503.88" stroke="#ffffff" stroke-width="3"/><text x="78" y="506.88" font-family="Segoe UI,Arial" font-size="10.5" fill="#e6edf3">desmarque/carrera</text><circle cx="49" cy="520.88" r="6" fill="#ffd54a"/><text x="78" y="523.88" font-family="Segoe UI,Arial" font-size="10.5" fill="#e6edf3">zona</text></g></svg>