<svg xmlns="http://www.w3.org/2000/svg" viewBox="0 0 680 754" width="680" height="754" font-family="Segoe UI,Arial,sans-serif"><defs><marker id="ah_pass" viewBox="0 0 10 10" refX="8" refY="5" markerWidth="6.5" markerHeight="6.5" orient="auto-start-reverse"><path d="M0,0 L10,5 L0,10 z" fill="#ffd54a"/></marker><marker id="ah_run" viewBox="0 0 10 10" refX="8" refY="5" markerWidth="6.5" markerHeight="6.5" orient="auto-start-reverse"><path d="M0,0 L10,5 L0,10 z" fill="#ffffff"/></marker><marker id="ah_drive" viewBox="0 0 10 10" refX="8" refY="5" markerWidth="6.5" markerHeight="6.5" orient="auto-start-reverse"><path d="M0,0 L10,5 L0,10 z" fill="#7ee0ff"/></marker><marker id="ah_white" viewBox="0 0 10 10" refX="8" refY="5" markerWidth="6.5" markerHeight="6.5" orient="auto-start-reverse"><path d="M0,0 L10,5 L0,10 z" fill="#ffffff"/></marker></defs><rect x="0.0" y="0.0" width="680.0" height="754.0" fill="#15202b"/><rect x="26.0" y="76.0" width="628.0" height="63.3" fill="#2f8a3e"/><rect x="26.0" y="138.8" width="628.0" height="63.3" fill="#2a7d36"/><rect x="26.0" y="201.6" width="628.0" height="63.3" fill="#2f8a3e"/><rect x="26.0" y="264.4" width="628.0" height="63.3" fill="#2a7d36"/><rect x="26.0" y="327.2" width="628.0" height="63.3" fill="#2f8a3e"/><rect x="26.0" y="390.0" width="628.0" height="63.3" fill="#2a7d36"/><rect x="26.0" y="452.8" width="628.0" height="63.3" fill="#2f8a3e"/><rect x="26.0" y="515.6" width="628.0" height="63.3" fill="#2a7d36"/><rect x="26.0" y="578.4" width="628.0" height="63.3" fill="#2f8a3e"/><rect x="26.0" y="641.2" width="628.0" height="63.3" fill="#2a7d36"/><rect x="26.0" y="76.0" width="628.0" height="628.0" fill="none" stroke="#1f5f2a" stroke-width="2"/><rect x="0.0" y="0.0" width="680.0" height="50.0" fill="#15202b"/><text x="340.0" y="24.0" font-family="Segoe UI,Arial,sans-serif" font-size="17" font-weight="800" fill="#ffffff" text-anchor="middle" >Tarea 15 — Superioridad 4v3 dinámica con relevo del libre</text><text x="340.0" y="40.0" font-family="Segoe UI,Arial,sans-serif" font-size="11" font-weight="500" fill="#9fb3c8" text-anchor="middle" >4v3 puro · cuadrado 16×16 m con 4 conos de posición</text><rect x="0.0" y="730.0" width="680.0" height="24.0" fill="#15202b"/><text x="668.0" y="746.0" font-family="Segoe UI,Arial,sans-serif" font-size="10" font-weight="700" fill="#8aa0b6" text-anchor="end" >MISTER ÉLITE · Moisés Díaz</text><text x="12.0" y="746.0" font-family="Segoe UI,Arial,sans-serif" font-size="10" font-weight="600" fill="#7f93a8" text-anchor="start" >Juego de posición · MISTER ÉLITE</text><rect x="151.6" y="163.9" width="376.8" height="439.6" rx="3" fill="none" stroke="#ffffff" stroke-width="2.6"/><path d="M151.6,596.5 l5,11 l-10,0 z" fill="#ff9800" stroke="#7a4f00" stroke-width="1"/><path d="M151.6,156.9 l5,11 l-10,0 z" fill="#ff9800" stroke="#7a4f00" stroke-width="1"/><path d="M528.4,596.5 l5,11 l-10,0 z" fill="#ff9800" stroke="#7a4f00" stroke-width="1"/><path d="M528.4,156.9 l5,11 l-10,0 z" fill="#ff9800" stroke="#7a4f00" stroke-width="1"/><path d="M189.3,194.6 l5,11 l-10,0 z" fill="#ff9800" stroke="#7a4f00" stroke-width="1"/><path d="M490.7,194.6 l5,11 l-10,0 z" fill="#ff9800" stroke="#7a4f00" stroke-width="1"/><path d="M490.7,558.8 l5,11 l-10,0 z" fill="#ff9800" stroke="#7a4f00" stroke-width="1"/><path d="M189.3,558.8 l5,11 l-10,0 z" fill="#ff9800" stroke="#7a4f00" stroke-width="1"/><g><circle cx="189.3" cy="201.6" r="15" fill="#1565c0" stroke="#0d3c75" stroke-width="2.5"/><text x="189.3" y="205.6" font-family="Segoe UI,Arial" font-size="11.5" font-weight="800" fill="#fff" text-anchor="middle">P1</text></g><g><circle cx="490.7" cy="201.6" r="15" fill="#1565c0" stroke="#0d3c75" stroke-width="2.5"/><text x="490.7" y="205.6" font-family="Segoe UI,Arial" font-size="11.5" font-weight="800" fill="#fff" text-anchor="middle">P2</text></g><g><circle cx="490.7" cy="565.8" r="15" fill="#1565c0" stroke="#0d3c75" stroke-width="2.5"/><text x="490.7" y="569.8" font-family="Segoe UI,Arial" font-size="11.5" font-weight="800" fill="#fff" text-anchor="middle">P3</text></g><g><circle cx="189.3" cy="565.8" r="15" fill="#1565c0" stroke="#0d3c75" stroke-width="2.5"/><text x="189.3" y="569.8" font-family="Segoe UI,Arial" font-size="11.5" font-weight="800" fill="#fff" text-anchor="middle">P4</text></g><g><circle cx="302.3" cy="264.4" r="15" fill="#c62828" stroke="#7f1414" stroke-width="2.5"/><text x="302.3" y="268.4" font-family="Segoe UI,Arial" font-size="11.5" font-weight="800" fill="#fff" text-anchor="middle">D1</text></g><g><circle cx="390.2" cy="258.1" r="15" fill="#c62828" stroke="#7f1414" stroke-width="2.5"/><text x="390.2" y="262.1" font-family="Segoe UI,Arial" font-size="11.5" font-weight="800" fill="#fff" text-anchor="middle">D2</text></g><g><circle cx="314.9" cy="396.3" r="15" fill="#c62828" stroke="#7f1414" stroke-width="2.5"/><text x="314.9" y="400.3" font-family="Segoe UI,Arial" font-size="11.5" font-weight="800" fill="#fff" text-anchor="middle">D3</text></g><circle cx="189.3" cy="220.4" r="6.0" fill="#fafafa" stroke="#222" stroke-width="1.4"/><path d="M189.3,214.4 l3.0,4.2 l-4.8,0 z" fill="#222"/><ellipse cx="484.4" cy="553.3" rx="50.2" ry="44.0" fill="#ffd54a" fill-opacity="0.16" stroke="#ffd54a" stroke-width="2" stroke-dasharray="6 5"/><text x="484.4" y="556.3" font-family="Segoe UI,Arial,sans-serif" font-size="10.5" font-weight="700" fill="#fff" text-anchor="middle" >libre</text><line x1="214.4" y1="201.6" x2="465.6" y2="201.6" stroke="#ffd54a" stroke-width="2.8" stroke-dasharray="7 5" marker-end="url(#ah_pass)"/><text x="340.0" y="196.6" font-family="Segoe UI,Arial,sans-serif" font-size="9.5" font-weight="700" fill="#ffd54a" text-anchor="middle" >al hombre libre</text><line x1="490.7" y1="226.7" x2="490.7" y2="540.7" stroke="#ffd54a" stroke-width="2.8" stroke-dasharray="7 5" marker-end="url(#ah_pass)"/><text x="490.7" y="378.7" font-family="Segoe UI,Arial,sans-serif" font-size="9.5" font-weight="700" fill="#ffd54a" text-anchor="middle" >rota el libre</text><text x="390.2" y="628.6" font-family="Segoe UI,Arial,sans-serif" font-size="9" font-weight="600" fill="#fff5cc" text-anchor="middle" >El libre es el OPUESTO a la presión · tras cada pase cambia → rotar</text><g><rect x="32" y="626.0" width="168" height="84" rx="7" fill="#15202b" fill-opacity="0.82" stroke="#3a4a5a" stroke-width="1"/><text x="42" y="640.0" font-family="Segoe UI,Arial" font-size="10" font-weight="800" fill="#9fb3c8">LEYENDA</text><circle cx="49" cy="652.0" r="6" fill="#1565c0"/><text x="78" y="655.0" font-family="Segoe UI,Arial" font-size="10.5" fill="#e6edf3">propio</text><circle cx="49" cy="669.0" r="6" fill="#c62828"/><text x="78" y="672.0" font-family="Segoe UI,Arial" font-size="10.5" fill="#e6edf3">rival</text><line x1="44" y1="686.0" x2="70" y2="686.0" stroke="#ffd54a" stroke-width="3" stroke-dasharray="6 4"/><text x="78" y="689.0" font-family="Segoe UI,Arial" font-size="10.5" fill="#e6edf3">pase</text><circle cx="49" cy="703.0" r="6" fill="#ffd54a"/><text x="78" y="706.0" font-family="Segoe UI,Arial" font-size="10.5" fill="#e6edf3">zona</text></g></svg>