<svg xmlns="http://www.w3.org/2000/svg" viewBox="0 0 680 509" width="680" height="509" font-family="Segoe UI,Arial,sans-serif"><defs><marker id="ah_pass" viewBox="0 0 10 10" refX="8" refY="5" markerWidth="6.5" markerHeight="6.5" orient="auto-start-reverse"><path d="M0,0 L10,5 L0,10 z" fill="#ffd54a"/></marker><marker id="ah_run" viewBox="0 0 10 10" refX="8" refY="5" markerWidth="6.5" markerHeight="6.5" orient="auto-start-reverse"><path d="M0,0 L10,5 L0,10 z" fill="#ffffff"/></marker><marker id="ah_drive" viewBox="0 0 10 10" refX="8" refY="5" markerWidth="6.5" markerHeight="6.5" orient="auto-start-reverse"><path d="M0,0 L10,5 L0,10 z" fill="#7ee0ff"/></marker><marker id="ah_white" viewBox="0 0 10 10" refX="8" refY="5" markerWidth="6.5" markerHeight="6.5" orient="auto-start-reverse"><path d="M0,0 L10,5 L0,10 z" fill="#ffffff"/></marker></defs><rect x="0.0" y="0.0" width="680.0" height="509.1" fill="#15202b"/><rect x="26.0" y="76.0" width="628.0" height="38.8" fill="#2f8a3e"/><rect x="26.0" y="114.3" width="628.0" height="38.8" fill="#2a7d36"/><rect x="26.0" y="152.6" width="628.0" height="38.8" fill="#2f8a3e"/><rect x="26.0" y="190.9" width="628.0" height="38.8" fill="#2a7d36"/><rect x="26.0" y="229.2" width="628.0" height="38.8" fill="#2f8a3e"/><rect x="26.0" y="267.5" width="628.0" height="38.8" fill="#2a7d36"/><rect x="26.0" y="305.8" width="628.0" height="38.8" fill="#2f8a3e"/><rect x="26.0" y="344.2" width="628.0" height="38.8" fill="#2a7d36"/><rect x="26.0" y="382.5" width="628.0" height="38.8" fill="#2f8a3e"/><rect x="26.0" y="420.8" width="628.0" height="38.8" fill="#2a7d36"/><rect x="26.0" y="76.0" width="628.0" height="383.1" fill="none" stroke="#1f5f2a" stroke-width="2"/><rect x="0.0" y="0.0" width="680.0" height="50.0" fill="#15202b"/><text x="340.0" y="24.0" font-family="Segoe UI,Arial,sans-serif" font-size="17" font-weight="800" fill="#ffffff" text-anchor="middle" >Tarea 13 — Atraer para liberar: fijar un lado y cambiar</text><text x="340.0" y="40.0" font-family="Segoe UI,Arial,sans-serif" font-size="11" font-weight="500" fill="#9fb3c8" text-anchor="middle" >6v4 (4 interiores + 2 banda) · rectángulo 36×22 m (2 carriles)</text><rect x="0.0" y="485.1" width="680.0" height="24.0" fill="#15202b"/><text x="668.0" y="501.1" font-family="Segoe UI,Arial,sans-serif" font-size="10" font-weight="700" fill="#8aa0b6" text-anchor="end" >MISTER ÉLITE · Moisés Díaz</text><text x="12.0" y="501.1" font-family="Segoe UI,Arial,sans-serif" font-size="10" font-weight="600" fill="#7f93a8" text-anchor="start" >Juego de posición · MISTER ÉLITE</text><rect x="88.8" y="145.0" width="502.4" height="237.5" rx="3" fill="none" stroke="#ffffff" stroke-width="2.6"/><path d="M88.8,375.5 l5,11 l-10,0 z" fill="#ff9800" stroke="#7a4f00" stroke-width="1"/><path d="M88.8,138.0 l5,11 l-10,0 z" fill="#ff9800" stroke="#7a4f00" stroke-width="1"/><path d="M591.2,375.5 l5,11 l-10,0 z" fill="#ff9800" stroke="#7a4f00" stroke-width="1"/><path d="M591.2,138.0 l5,11 l-10,0 z" fill="#ff9800" stroke="#7a4f00" stroke-width="1"/><line x1="164.2" y1="382.5" x2="164.2" y2="145.0" stroke="#dfe7ef" stroke-width="2.0" stroke-dasharray="3 6" opacity="1"/><line x1="515.8" y1="382.5" x2="515.8" y2="145.0" stroke="#dfe7ef" stroke-width="2.0" stroke-dasharray="3 6" opacity="1"/><g><circle cx="120.2" cy="240.7" r="15" fill="#1565c0" stroke="#0d3c75" stroke-width="2.5"/><text x="120.2" y="244.7" font-family="Segoe UI,Arial" font-size="11.5" font-weight="800" fill="#fff" text-anchor="middle">BI</text></g><text x="120.2" y="221.7" font-family="Segoe UI,Arial,sans-serif" font-size="9.5" font-weight="600" fill="#fff5cc" text-anchor="middle" >banda</text><g><circle cx="559.8" cy="271.4" r="15" fill="#1565c0" stroke="#0d3c75" stroke-width="2.5"/><text x="559.8" y="275.4" font-family="Segoe UI,Arial" font-size="11.5" font-weight="800" fill="#fff" text-anchor="middle">BD</text></g><text x="559.8" y="252.4" font-family="Segoe UI,Arial,sans-serif" font-size="9.5" font-weight="600" fill="#fff5cc" text-anchor="middle" >banda libre</text><g><circle cx="227.0" cy="179.4" r="15" fill="#1565c0" stroke="#0d3c75" stroke-width="2.5"/><text x="227.0" y="183.4" font-family="Segoe UI,Arial" font-size="11.5" font-weight="800" fill="#fff" text-anchor="middle">P1</text></g><g><circle cx="214.4" cy="344.2" r="15" fill="#1565c0" stroke="#0d3c75" stroke-width="2.5"/><text x="214.4" y="348.2" font-family="Segoe UI,Arial" font-size="11.5" font-weight="800" fill="#fff" text-anchor="middle">P2</text></g><g><circle cx="302.3" cy="244.6" r="15" fill="#1565c0" stroke="#0d3c75" stroke-width="2.5"/><text x="302.3" y="248.6" font-family="Segoe UI,Arial" font-size="11.5" font-weight="800" fill="#fff" text-anchor="middle">P3</text></g><g><circle cx="390.2" cy="282.9" r="15" fill="#1565c0" stroke="#0d3c75" stroke-width="2.5"/><text x="390.2" y="286.9" font-family="Segoe UI,Arial" font-size="11.5" font-weight="800" fill="#fff" text-anchor="middle">P4</text></g><g><circle cx="201.8" cy="194.8" r="15" fill="#c62828" stroke="#7f1414" stroke-width="2.5"/><text x="201.8" y="198.8" font-family="Segoe UI,Arial" font-size="11.5" font-weight="800" fill="#fff" text-anchor="middle">D1</text></g><g><circle cx="176.7" cy="256.0" r="15" fill="#c62828" stroke="#7f1414" stroke-width="2.5"/><text x="176.7" y="260.0" font-family="Segoe UI,Arial" font-size="11.5" font-weight="800" fill="#fff" text-anchor="middle">D2</text></g><g><circle cx="239.5" cy="286.7" r="15" fill="#c62828" stroke="#7f1414" stroke-width="2.5"/><text x="239.5" y="290.7" font-family="Segoe UI,Arial" font-size="11.5" font-weight="800" fill="#fff" text-anchor="middle">D3</text></g><g><circle cx="277.2" cy="336.5" r="15" fill="#c62828" stroke="#7f1414" stroke-width="2.5"/><text x="277.2" y="340.5" font-family="Segoe UI,Arial" font-size="11.5" font-weight="800" fill="#fff" text-anchor="middle">D4</text></g><circle cx="227.0" cy="179.4" r="6.0" fill="#fafafa" stroke="#222" stroke-width="1.4"/><path d="M227.0,173.4 l3.0,4.2 l-4.8,0 z" fill="#222"/><line x1="227.0" y1="179.4" x2="214.4" y2="344.2" stroke="#ffd54a" stroke-width="2.8" stroke-dasharray="7 5" marker-end="url(#ah_pass)"/><text x="220.7" y="256.8" font-family="Segoe UI,Arial,sans-serif" font-size="9.5" font-weight="700" fill="#ffd54a" text-anchor="middle" >fija</text><line x1="214.4" y1="344.2" x2="390.2" y2="282.9" stroke="#ffd54a" stroke-width="2.8" stroke-dasharray="7 5" marker-end="url(#ah_pass)"/><text x="302.3" y="308.5" font-family="Segoe UI,Arial,sans-serif" font-size="9.5" font-weight="700" fill="#ffd54a" text-anchor="middle" >≥4 pases</text><line x1="390.2" y1="282.9" x2="559.8" y2="271.4" stroke="#ffd54a" stroke-width="2.8" stroke-dasharray="7 5" marker-end="url(#ah_pass)"/><text x="475.0" y="272.1" font-family="Segoe UI,Arial,sans-serif" font-size="9.5" font-weight="700" fill="#ffd54a" text-anchor="middle" >CAMBIO a banda libre</text><text x="390.2" y="397.8" font-family="Segoe UI,Arial,sans-serif" font-size="8.6" font-weight="600" fill="#fff5cc" text-anchor="middle" >Atrae 3-4 rojos a un lado · cambia al azul LIBRE de la banda contraria</text><g><rect x="32" y="398.08" width="168" height="67" rx="7" fill="#15202b" fill-opacity="0.82" stroke="#3a4a5a" stroke-width="1"/><text x="42" y="412.08" font-family="Segoe UI,Arial" font-size="10" font-weight="800" fill="#9fb3c8">LEYENDA</text><circle cx="49" cy="424.08" r="6" fill="#1565c0"/><text x="78" y="427.08" font-family="Segoe UI,Arial" font-size="10.5" fill="#e6edf3">propio</text><circle cx="49" cy="441.08" r="6" fill="#c62828"/><text x="78" y="444.08" font-family="Segoe UI,Arial" font-size="10.5" fill="#e6edf3">rival</text><line x1="44" y1="458.08" x2="70" y2="458.08" stroke="#ffd54a" stroke-width="3" stroke-dasharray="6 4"/><text x="78" y="461.08" font-family="Segoe UI,Arial" font-size="10.5" fill="#e6edf3">pase</text></g></svg>