<svg xmlns="http://www.w3.org/2000/svg" viewBox="0 0 680 942" width="680" height="942" font-family="Segoe UI,Arial,sans-serif"><defs><marker id="ah_pass" viewBox="0 0 10 10" refX="8" refY="5" markerWidth="6.5" markerHeight="6.5" orient="auto-start-reverse"><path d="M0,0 L10,5 L0,10 z" fill="#ffd54a"/></marker><marker id="ah_run" viewBox="0 0 10 10" refX="8" refY="5" markerWidth="6.5" markerHeight="6.5" orient="auto-start-reverse"><path d="M0,0 L10,5 L0,10 z" fill="#ffffff"/></marker><marker id="ah_drive" viewBox="0 0 10 10" refX="8" refY="5" markerWidth="6.5" markerHeight="6.5" orient="auto-start-reverse"><path d="M0,0 L10,5 L0,10 z" fill="#7ee0ff"/></marker><marker id="ah_white" viewBox="0 0 10 10" refX="8" refY="5" markerWidth="6.5" markerHeight="6.5" orient="auto-start-reverse"><path d="M0,0 L10,5 L0,10 z" fill="#ffffff"/></marker></defs><rect x="0.0" y="0.0" width="680.0" height="942.4" fill="#15202b"/><rect x="26.0" y="76.0" width="628.0" height="82.1" fill="#2f8a3e"/><rect x="26.0" y="157.6" width="628.0" height="82.1" fill="#2a7d36"/><rect x="26.0" y="239.3" width="628.0" height="82.1" fill="#2f8a3e"/><rect x="26.0" y="320.9" width="628.0" height="82.1" fill="#2a7d36"/><rect x="26.0" y="402.6" width="628.0" height="82.1" fill="#2f8a3e"/><rect x="26.0" y="484.2" width="628.0" height="82.1" fill="#2a7d36"/><rect x="26.0" y="565.8" width="628.0" height="82.1" fill="#2f8a3e"/><rect x="26.0" y="647.5" width="628.0" height="82.1" fill="#2a7d36"/><rect x="26.0" y="729.1" width="628.0" height="82.1" fill="#2f8a3e"/><rect x="26.0" y="810.8" width="628.0" height="82.1" fill="#2a7d36"/><rect x="26.0" y="76.0" width="628.0" height="816.4" fill="none" stroke="#1f5f2a" stroke-width="2"/><rect x="0.0" y="0.0" width="680.0" height="50.0" fill="#15202b"/><text x="340.0" y="24.0" font-family="Segoe UI,Arial,sans-serif" font-size="17" font-weight="800" fill="#ffffff" text-anchor="middle" >Tercer hombre</text><text x="340.0" y="40.0" font-family="Segoe UI,Arial,sans-serif" font-size="11" font-weight="500" fill="#9fb3c8" text-anchor="middle" >1 A juega a B (de espaldas) · 2 B filtra de primeras · 3 C ataca el espacio</text><rect x="0.0" y="918.4" width="680.0" height="24.0" fill="#15202b"/><text x="668.0" y="934.4" font-family="Segoe UI,Arial,sans-serif" font-size="10" font-weight="700" fill="#8aa0b6" text-anchor="end" >MISTER ÉLITE · Moisés Díaz</text><text x="12.0" y="934.4" font-family="Segoe UI,Arial,sans-serif" font-size="10" font-weight="600" fill="#7f93a8" text-anchor="start" >Juego de posición · MISTER ÉLITE</text><line x1="76.2" y1="418.9" x2="603.8" y2="418.9" stroke="#ff5252" stroke-width="2.4" stroke-dasharray="6 5" opacity="0.85"/><text x="120.2" y="411.9" font-family="Segoe UI,Arial,sans-serif" font-size="9" font-weight="600" fill="#ff8a80" text-anchor="middle" >línea rival</text><line x1="189.3" y1="745.4" x2="277.2" y2="494.0" stroke="#ffd54a" stroke-width="2.8" stroke-dasharray="7 5" marker-end="url(#ah_pass)"/><line x1="286.6" y1="484.2" x2="468.7" y2="484.2" stroke="#ffd54a" stroke-width="2.8" stroke-dasharray="7 5" marker-end="url(#ah_pass)"/><line x1="478.2" y1="472.0" x2="515.8" y2="239.3" stroke="#ffffff" stroke-width="2.8" marker-end="url(#ah_run)"/><line x1="321.2" y1="402.6" x2="286.6" y2="472.0" stroke="#ff5252" stroke-width="2.6" stroke-dasharray="2 4" marker-end="url(#ah_run)"/><g><circle cx="189.3" cy="745.4" r="15" fill="#1565c0" stroke="#0d3c75" stroke-width="2.5"/><text x="189.3" y="749.4" font-family="Segoe UI,Arial" font-size="11.5" font-weight="800" fill="#fff" text-anchor="middle">A</text></g><circle cx="189.3" cy="745.4" r="6.0" fill="#fafafa" stroke="#222" stroke-width="1.4"/><path d="M189.3,739.4 l3.0,4.2 l-4.8,0 z" fill="#222"/><g><circle cx="277.2" cy="484.2" r="15" fill="#1565c0" stroke="#0d3c75" stroke-width="2.5"/><text x="277.2" y="488.2" font-family="Segoe UI,Arial" font-size="11.5" font-weight="800" fill="#fff" text-anchor="middle">B</text></g><g><circle cx="478.2" cy="484.2" r="15" fill="#1565c0" stroke="#0d3c75" stroke-width="2.5"/><text x="478.2" y="488.2" font-family="Segoe UI,Arial" font-size="11.5" font-weight="800" fill="#fff" text-anchor="middle">C</text></g><g><circle cx="321.2" cy="402.6" r="15" fill="#c62828" stroke="#7f1414" stroke-width="2.5"/><text x="321.2" y="406.6" font-family="Segoe UI,Arial" font-size="11.5" font-weight="800" fill="#fff" text-anchor="middle">D</text></g><text x="245.8" y="465.2" font-family="Segoe UI,Arial,sans-serif" font-size="9.5" font-weight="700" fill="#fff5cc" text-anchor="start" >pivote de espaldas</text><text x="490.7" y="465.2" font-family="Segoe UI,Arial,sans-serif" font-size="9.5" font-weight="700" fill="#fff5cc" text-anchor="middle" >tercer hombre</text><text x="515.8" y="257.3" font-family="Segoe UI,Arial,sans-serif" font-size="9.5" font-weight="600" fill="#cfe8ff" text-anchor="middle" >ataca el espacio</text><circle cx="214.4" cy="614.8" r="11" fill="#15202b" fill-opacity="0.9" stroke="#ffd54a" stroke-width="2"/><text x="214.4" y="619.8" font-family="Segoe UI,Arial" font-size="15" font-weight="800" fill="#ffd54a" text-anchor="middle">1</text><circle cx="415.4" cy="418.9" r="11" fill="#15202b" fill-opacity="0.9" stroke="#ffd54a" stroke-width="2"/><text x="415.4" y="423.9" font-family="Segoe UI,Arial" font-size="15" font-weight="800" fill="#ffd54a" text-anchor="middle">2</text><circle cx="515.8" cy="361.7" r="11" fill="#15202b" fill-opacity="0.9" stroke="#ffffff" stroke-width="2"/><text x="515.8" y="366.7" font-family="Segoe UI,Arial" font-size="15" font-weight="800" fill="#ffffff" text-anchor="middle">3</text><rect x="76.2" y="680.1" width="527.5" height="30.0" rx="7" fill="#15202b" fill-opacity="0.92" stroke="#ffd54a" stroke-width="1.4"/><text x="340.0" y="699.1" font-family="Segoe UI,Arial" font-size="12.5" font-weight="700" fill="#fff5cc" text-anchor="middle">El rival salta a B y deja libre a C (el tercer hombre)</text><g><rect x="32" y="814.4" width="168" height="84" rx="7" fill="#15202b" fill-opacity="0.82" stroke="#3a4a5a" stroke-width="1"/><text x="42" y="828.4" font-family="Segoe UI,Arial" font-size="10" font-weight="800" fill="#9fb3c8">LEYENDA</text><line x1="44" y1="840.4" x2="70" y2="840.4" stroke="#ffd54a" stroke-width="3" stroke-dasharray="6 4"/><text x="78" y="843.4" font-family="Segoe UI,Arial" font-size="10.5" fill="#e6edf3">pase</text><line x1="44" y1="857.4" x2="70" y2="857.4" stroke="#ffffff" stroke-width="3"/><text x="78" y="860.4" font-family="Segoe UI,Arial" font-size="10.5" fill="#e6edf3">desmarque/carrera</text><circle cx="49" cy="874.4" r="6" fill="#1565c0"/><text x="78" y="877.4" font-family="Segoe UI,Arial" font-size="10.5" fill="#e6edf3">propio</text><circle cx="49" cy="891.4" r="6" fill="#c62828"/><text x="78" y="894.4" font-family="Segoe UI,Arial" font-size="10.5" fill="#e6edf3">rival</text></g></svg>