<svg xmlns="http://www.w3.org/2000/svg" viewBox="0 0 680 1081" width="680" height="1081" font-family="Segoe UI,Arial,sans-serif"><defs><linearGradient id="sky" x1="0" y1="0" x2="0" y2="1"><stop offset="0" stop-color="#2f8a3e"/><stop offset="1" stop-color="#2b8139"/></linearGradient><marker id="ah_pass" viewBox="0 0 10 10" refX="8" refY="5" markerWidth="6.5" markerHeight="6.5" orient="auto-start-reverse"><path d="M0,0 L10,5 L0,10 z" fill="#ffd54a"/></marker><marker id="ah_run" viewBox="0 0 10 10" refX="8" refY="5" markerWidth="6.5" markerHeight="6.5" orient="auto-start-reverse"><path d="M0,0 L10,5 L0,10 z" fill="#ffffff"/></marker><marker id="ah_drive" viewBox="0 0 10 10" refX="8" refY="5" markerWidth="6.5" markerHeight="6.5" orient="auto-start-reverse"><path d="M0,0 L10,5 L0,10 z" fill="#7ee0ff"/></marker><marker id="ah_white" viewBox="0 0 10 10" refX="8" refY="5" markerWidth="6.5" markerHeight="6.5" orient="auto-start-reverse"><path d="M0,0 L10,5 L0,10 z" fill="#ffffff"/></marker></defs><rect x="0.0" y="0.0" width="680.0" height="1080.6" fill="#15202b"/><rect x="26.0" y="76.0" width="628.0" height="96.0" fill="#2f8a3e"/><rect x="26.0" y="171.5" width="628.0" height="96.0" fill="#2a7d36"/><rect x="26.0" y="266.9" width="628.0" height="96.0" fill="#2f8a3e"/><rect x="26.0" y="362.4" width="628.0" height="96.0" fill="#2a7d36"/><rect x="26.0" y="457.8" width="628.0" height="96.0" fill="#2f8a3e"/><rect x="26.0" y="553.3" width="628.0" height="96.0" fill="#2a7d36"/><rect x="26.0" y="648.7" width="628.0" height="96.0" fill="#2f8a3e"/><rect x="26.0" y="744.2" width="628.0" height="96.0" fill="#2a7d36"/><rect x="26.0" y="839.6" width="628.0" height="96.0" fill="#2f8a3e"/><rect x="26.0" y="935.1" width="628.0" height="96.0" fill="#2a7d36"/><rect x="26.0" y="76.0" width="628.0" height="954.6" fill="none" stroke="#ffffff" stroke-width="2.4"/><line x1="26.0" y1="553.3" x2="654.0" y2="553.3" stroke="#ffffff" stroke-width="2.4" opacity="1"/><circle cx="340.0" cy="553.3" r="57.5" fill="none" stroke="#ffffff" stroke-width="2.4"/><circle cx="340.0" cy="553.3" r="2.4" fill="#ffffff"/><path d="M157.9,76.0 L157.9,233.5 L522.1,233.5 L522.1,76.0" fill="none" stroke="#ffffff" stroke-width="2.4"/><path d="M258.4,76.0 L258.4,128.5 L421.6,128.5 L421.6,76.0" fill="none" stroke="#ffffff" stroke-width="2.4"/><circle cx="340.0" cy="181.0" r="2.0" fill="#ffffff"/><rect x="311.7" y="72.0" width="56.5" height="4" fill="none" stroke="#ffffff" stroke-width="2"/><path d="M296.0,233.5 A57.5,57.5 0 0 1 384.0,233.5" fill="none" stroke="#ffffff" stroke-width="2.4"/><path d="M157.9,1030.6 L157.9,873.1 L522.1,873.1 L522.1,1030.6" fill="none" stroke="#ffffff" stroke-width="2.4"/><path d="M258.4,1030.6 L258.4,978.1 L421.6,978.1 L421.6,1030.6" fill="none" stroke="#ffffff" stroke-width="2.4"/><circle cx="340.0" cy="925.6" r="2.0" fill="#ffffff"/><rect x="311.7" y="1030.6" width="56.5" height="4" fill="none" stroke="#ffffff" stroke-width="2"/><path d="M296.0,873.1 A57.5,57.5 0 0 0 384.0,873.1" fill="none" stroke="#ffffff" stroke-width="2.4"/><rect x="0.0" y="0.0" width="680.0" height="50.0" fill="#15202b"/><text x="340.0" y="24.0" font-family="Segoe UI,Arial,sans-serif" font-size="17" font-weight="800" fill="#ffffff" text-anchor="middle" >Perfil y orientación corporal</text><text x="340.0" y="40.0" font-family="Segoe UI,Arial,sans-serif" font-size="11" font-weight="500" fill="#9fb3c8" text-anchor="middle" >Izq: recibir de espaldas (malo) · Der: cuerpo abierto y 1.er toque al espacio (bueno)</text><rect x="0.0" y="1056.6" width="680.0" height="24.0" fill="#15202b"/><text x="668.0" y="1072.6" font-family="Segoe UI,Arial,sans-serif" font-size="10" font-weight="700" fill="#8aa0b6" text-anchor="end" >MISTER ÉLITE · Moisés Díaz</text><text x="12.0" y="1072.6" font-family="Segoe UI,Arial,sans-serif" font-size="10" font-weight="600" fill="#7f93a8" text-anchor="start" >Juego de posición · MISTER ÉLITE</text><line x1="340.0" y1="973.3" x2="340.0" y2="152.4" stroke="#0d3c75" stroke-width="2.4" opacity="1"/><rect x="96.0" y="280.0" width="174" height="26" rx="7" fill="#3a1414" fill-opacity="0.9" stroke="#ff8a80" stroke-width="1.2"/><text x="183.0" y="298.0" font-family="Segoe UI,Arial,sans-serif" font-size="12" font-weight="800" fill="#ff8a80" text-anchor="middle" >DE ESPALDAS  ✗</text><rect x="410.0" y="280.0" width="174" height="26" rx="7" fill="#0b2c57" fill-opacity="0.9" stroke="#7ee0ff" stroke-width="1.2"/><text x="497.0" y="298.0" font-family="Segoe UI,Arial,sans-serif" font-size="12" font-weight="800" fill="#7ee0ff" text-anchor="middle" >PERFIL ABIERTO  ✓</text><g><circle cx="183.0" cy="744.2" r="15" fill="#1565c0" stroke="#0d3c75" stroke-width="2.5"/><text x="183.0" y="748.2" font-family="Segoe UI,Arial" font-size="11.5" font-weight="800" fill="#fff" text-anchor="middle">P</text></g><circle cx="183.0" cy="744.2" r="6.0" fill="#fafafa" stroke="#222" stroke-width="1.4"/><path d="M183.0,738.2 l3.0,4.2 l-4.8,0 z" fill="#222"/><g><circle cx="183.0" cy="476.9" r="15" fill="#1565c0" stroke="#0d3c75" stroke-width="2.5"/><text x="183.0" y="480.9" font-family="Segoe UI,Arial" font-size="11.5" font-weight="800" fill="#fff" text-anchor="middle">P</text></g><text x="183.0" y="503.9" font-family="Segoe UI,Arial,sans-serif" font-size="9.5" font-weight="600" fill="#fff5cc" text-anchor="middle" >de espaldas</text><g><circle cx="183.0" cy="362.4" r="15" fill="#c62828" stroke="#7f1414" stroke-width="2.5"/><text x="183.0" y="366.4" font-family="Segoe UI,Arial" font-size="11.5" font-weight="800" fill="#fff" text-anchor="middle">D</text></g><line x1="183.0" y1="744.2" x2="183.0" y2="505.6" stroke="#ffd54a" stroke-width="2.8" stroke-dasharray="7 5" marker-end="url(#ah_pass)"/><line x1="183.0" y1="476.9" x2="139.0" y2="648.7" stroke="#7ee0ff" stroke-width="2.8" marker-end="url(#ah_drive)"/><text x="161.0" y="557.8" font-family="Segoe UI,Arial,sans-serif" font-size="9.5" font-weight="700" fill="#7ee0ff" text-anchor="middle" >solo hacia atrás</text><g><circle cx="415.4" cy="744.2" r="15" fill="#1565c0" stroke="#0d3c75" stroke-width="2.5"/><text x="415.4" y="748.2" font-family="Segoe UI,Arial" font-size="11.5" font-weight="800" fill="#fff" text-anchor="middle">P</text></g><circle cx="415.4" cy="744.2" r="6.0" fill="#fafafa" stroke="#222" stroke-width="1.4"/><path d="M415.4,738.2 l3.0,4.2 l-4.8,0 z" fill="#222"/><g><circle cx="478.2" cy="496.0" r="15" fill="#1565c0" stroke="#0d3c75" stroke-width="2.5"/><text x="478.2" y="500.0" font-family="Segoe UI,Arial" font-size="11.5" font-weight="800" fill="#fff" text-anchor="middle">P</text></g><text x="478.2" y="523.0" font-family="Segoe UI,Arial,sans-serif" font-size="9.5" font-weight="600" fill="#fff5cc" text-anchor="middle" >cuerpo abierto</text><g><circle cx="478.2" cy="362.4" r="15" fill="#c62828" stroke="#7f1414" stroke-width="2.5"/><text x="478.2" y="366.4" font-family="Segoe UI,Arial" font-size="11.5" font-weight="800" fill="#fff" text-anchor="middle">D</text></g><line x1="415.4" y1="744.2" x2="478.2" y2="524.6" stroke="#ffd54a" stroke-width="2.8" stroke-dasharray="7 5" marker-end="url(#ah_pass)"/><line x1="478.2" y1="496.0" x2="566.1" y2="324.2" stroke="#7ee0ff" stroke-width="2.8" marker-end="url(#ah_drive)"/><text x="522.1" y="405.1" font-family="Segoe UI,Arial,sans-serif" font-size="9.5" font-weight="700" fill="#7ee0ff" text-anchor="middle" >1.er toque al espacio</text><line x1="478.2" y1="553.3" x2="553.5" y2="457.8" stroke="#ffffff" stroke-width="2.8" marker-end="url(#ah_run)"/><line x1="478.2" y1="553.3" x2="402.8" y2="457.8" stroke="#ffffff" stroke-width="2.8" marker-end="url(#ah_run)"/><text x="478.2" y="648.7" font-family="Segoe UI,Arial,sans-serif" font-size="8.5" font-weight="600" fill="#fff5cc" text-anchor="middle" >escanea antes</text><g><rect x="32" y="935.56" width="168" height="101" rx="7" fill="#15202b" fill-opacity="0.82" stroke="#3a4a5a" stroke-width="1"/><text x="42" y="949.56" font-family="Segoe UI,Arial" font-size="10" font-weight="800" fill="#9fb3c8">LEYENDA</text><line x1="44" y1="961.56" x2="70" y2="961.56" stroke="#ffd54a" stroke-width="3" stroke-dasharray="6 4"/><text x="78" y="964.56" font-family="Segoe UI,Arial" font-size="10.5" fill="#e6edf3">pase</text><line x1="44" y1="978.56" x2="70" y2="978.56" stroke="#7ee0ff" stroke-width="3"/><text x="78" y="981.56" font-family="Segoe UI,Arial" font-size="10.5" fill="#e6edf3">conducción</text><line x1="44" y1="995.56" x2="70" y2="995.56" stroke="#ffffff" stroke-width="3"/><text x="78" y="998.56" font-family="Segoe UI,Arial" font-size="10.5" fill="#e6edf3">desmarque/carrera</text><circle cx="49" cy="1012.56" r="6" fill="#1565c0"/><text x="78" y="1015.56" font-family="Segoe UI,Arial" font-size="10.5" fill="#e6edf3">propio</text><circle cx="49" cy="1029.56" r="6" fill="#c62828"/><text x="78" y="1032.56" font-family="Segoe UI,Arial" font-size="10.5" fill="#e6edf3">rival</text></g></svg>