<svg xmlns="http://www.w3.org/2000/svg" viewBox="0 0 680 1005" width="680" height="1005" font-family="Segoe UI,Arial,sans-serif"><defs><linearGradient id="sky" x1="0" y1="0" x2="0" y2="1"><stop offset="0" stop-color="#2f8a3e"/><stop offset="1" stop-color="#2b8139"/></linearGradient><marker id="ah_pass" viewBox="0 0 10 10" refX="8" refY="5" markerWidth="6.5" markerHeight="6.5" orient="auto-start-reverse"><path d="M0,0 L10,5 L0,10 z" fill="#ffd54a"/></marker><marker id="ah_run" viewBox="0 0 10 10" refX="8" refY="5" markerWidth="6.5" markerHeight="6.5" orient="auto-start-reverse"><path d="M0,0 L10,5 L0,10 z" fill="#ffffff"/></marker><marker id="ah_drive" viewBox="0 0 10 10" refX="8" refY="5" markerWidth="6.5" markerHeight="6.5" orient="auto-start-reverse"><path d="M0,0 L10,5 L0,10 z" fill="#7ee0ff"/></marker><marker id="ah_white" viewBox="0 0 10 10" refX="8" refY="5" markerWidth="6.5" markerHeight="6.5" orient="auto-start-reverse"><path d="M0,0 L10,5 L0,10 z" fill="#ffffff"/></marker></defs><rect x="0.0" y="0.0" width="680.0" height="1005.2" fill="#15202b"/><rect x="26.0" y="76.0" width="628.0" height="88.4" fill="#2f8a3e"/><rect x="26.0" y="163.9" width="628.0" height="88.4" fill="#2a7d36"/><rect x="26.0" y="251.8" width="628.0" height="88.4" fill="#2f8a3e"/><rect x="26.0" y="339.8" width="628.0" height="88.4" fill="#2a7d36"/><rect x="26.0" y="427.7" width="628.0" height="88.4" fill="#2f8a3e"/><rect x="26.0" y="515.6" width="628.0" height="88.4" fill="#2a7d36"/><rect x="26.0" y="603.5" width="628.0" height="88.4" fill="#2f8a3e"/><rect x="26.0" y="691.4" width="628.0" height="88.4" fill="#2a7d36"/><rect x="26.0" y="779.4" width="628.0" height="88.4" fill="#2f8a3e"/><rect x="26.0" y="867.3" width="628.0" height="88.4" fill="#2a7d36"/><rect x="26.0" y="76.0" width="628.0" height="879.2" fill="none" stroke="#ffffff" stroke-width="2.4"/><path d="M157.9,76.0 L157.9,366.1 L522.1,366.1 L522.1,76.0" fill="none" stroke="#ffffff" stroke-width="2.4"/><path d="M258.4,76.0 L258.4,172.7 L421.6,172.7 L421.6,76.0" fill="none" stroke="#ffffff" stroke-width="2.4"/><circle cx="340.0" cy="269.4" r="2.0" fill="#ffffff"/><rect x="311.7" y="72.0" width="56.5" height="4" fill="none" stroke="#ffffff" stroke-width="2"/><path d="M296.0,366.1 A57.5,57.5 0 0 1 384.0,366.1" fill="none" stroke="#ffffff" stroke-width="2.4"/><rect x="0.0" y="0.0" width="680.0" height="50.0" fill="#15202b"/><text x="340.0" y="24.0" font-family="Segoe UI,Arial,sans-serif" font-size="17" font-weight="800" fill="#ffffff" text-anchor="middle" >Tarea 9 — Línea de 4: subir, bajar y fuera de juego</text><text x="340.0" y="40.0" font-family="Segoe UI,Arial,sans-serif" font-size="11" font-weight="500" fill="#9fb3c8" text-anchor="middle" >4 def + POR vs 4 atacantes + pasadores · línea de FdJ móvil</text><rect x="0.0" y="981.2" width="680.0" height="24.0" fill="#15202b"/><text x="668.0" y="997.2" font-family="Segoe UI,Arial,sans-serif" font-size="10" font-weight="700" fill="#8aa0b6" text-anchor="end" >MISTER ÉLITE · Moisés Díaz</text><text x="12.0" y="997.2" font-family="Segoe UI,Arial,sans-serif" font-size="10" font-weight="600" fill="#7f93a8" text-anchor="start" >Sistema 1-4-4-2</text><g opacity="0.9"><line x1="628.9" y1="1060.7" x2="628.9" y2="849.7" stroke="#ffffff" stroke-width="2.5" marker-end="url(#ah_white)"/><text x="622.9" y="955.2" font-family="Segoe UI,Arial" font-size="9" fill="#ffffff" text-anchor="end" transform="rotate(-90 622.9 955.2)">ATAQUE</text></g><rect x="38.6" y="568.4" width="602.9" height="35.2" rx="6" fill="#ffd54a" fill-opacity="0.2" stroke="#ffd54a" stroke-width="2" stroke-dasharray="6 5"/><text x="340.0" y="588.9" font-family="Segoe UI,Arial,sans-serif" font-size="10.5" font-weight="700" fill="#fff" text-anchor="middle" >LÍNEA DE FUERA DE JUEGO</text><g><circle cx="340.0" cy="146.3" r="15" fill="#1565c0" stroke="#0d3c75" stroke-width="2.5"/><text x="340.0" y="150.3" font-family="Segoe UI,Arial" font-size="11.5" font-weight="800" fill="#fff" text-anchor="middle">POR</text></g><g><circle cx="201.8" cy="638.7" r="15" fill="#1565c0" stroke="#0d3c75" stroke-width="2.5"/><text x="201.8" y="642.7" font-family="Segoe UI,Arial" font-size="11.5" font-weight="800" fill="#fff" text-anchor="middle">LI</text></g><g><circle cx="296.0" cy="638.7" r="15" fill="#1565c0" stroke="#0d3c75" stroke-width="2.5"/><text x="296.0" y="642.7" font-family="Segoe UI,Arial" font-size="11.5" font-weight="800" fill="#fff" text-anchor="middle">DFC</text></g><text x="296.0" y="619.7" font-family="Segoe UI,Arial,sans-serif" font-size="9.5" font-weight="600" fill="#fff5cc" text-anchor="middle" >referencia: ¡arriba!</text><g><circle cx="384.0" cy="638.7" r="15" fill="#1565c0" stroke="#0d3c75" stroke-width="2.5"/><text x="384.0" y="642.7" font-family="Segoe UI,Arial" font-size="11.5" font-weight="800" fill="#fff" text-anchor="middle">DFC</text></g><g><circle cx="478.2" cy="638.7" r="15" fill="#1565c0" stroke="#0d3c75" stroke-width="2.5"/><text x="478.2" y="642.7" font-family="Segoe UI,Arial" font-size="11.5" font-weight="800" fill="#fff" text-anchor="middle">LD</text></g><line x1="201.8" y1="691.4" x2="201.8" y2="568.4" stroke="#ffffff" stroke-width="2.8" marker-end="url(#ah_run)"/><line x1="296.0" y1="691.4" x2="296.0" y2="568.4" stroke="#ffffff" stroke-width="2.8" marker-end="url(#ah_run)"/><line x1="384.0" y1="691.4" x2="384.0" y2="568.4" stroke="#ffffff" stroke-width="2.8" marker-end="url(#ah_run)"/><line x1="478.2" y1="691.4" x2="478.2" y2="568.4" stroke="#ffffff" stroke-width="2.8" marker-end="url(#ah_run)"/><text x="340.0" y="726.6" font-family="Segoe UI,Arial,sans-serif" font-size="10" font-weight="600" fill="#fff5cc" text-anchor="middle" >Subir como una persiana → deja en fuera de juego</text><g><circle cx="277.2" cy="498.0" r="15" fill="#c62828" stroke="#7f1414" stroke-width="2.5"/><text x="277.2" y="502.0" font-family="Segoe UI,Arial" font-size="11.5" font-weight="800" fill="#fff" text-anchor="middle">DC</text></g><text x="277.2" y="479.0" font-family="Segoe UI,Arial,sans-serif" font-size="9.5" font-weight="600" fill="#fff5cc" text-anchor="middle" >en FdJ</text><g><circle cx="402.8" cy="498.0" r="15" fill="#c62828" stroke="#7f1414" stroke-width="2.5"/><text x="402.8" y="502.0" font-family="Segoe UI,Arial" font-size="11.5" font-weight="800" fill="#fff" text-anchor="middle">DC</text></g><g><circle cx="214.4" cy="427.7" r="15" fill="#c62828" stroke="#7f1414" stroke-width="2.5"/><text x="214.4" y="431.7" font-family="Segoe UI,Arial" font-size="11.5" font-weight="800" fill="#fff" text-anchor="middle">AT</text></g><g><circle cx="465.6" cy="427.7" r="15" fill="#c62828" stroke="#7f1414" stroke-width="2.5"/><text x="465.6" y="431.7" font-family="Segoe UI,Arial" font-size="11.5" font-weight="800" fill="#fff" text-anchor="middle">AT</text></g><g><circle cx="340.0" cy="814.5" r="15" fill="#f5a623" stroke="#9c6510" stroke-width="2.5"/><text x="340.0" y="818.5" font-family="Segoe UI,Arial" font-size="11.5" font-weight="800" fill="#fff" text-anchor="middle">PAS</text></g><text x="340.0" y="795.5" font-family="Segoe UI,Arial,sans-serif" font-size="9.5" font-weight="600" fill="#fff5cc" text-anchor="middle" >pasador</text><circle cx="340.0" cy="814.5" r="6.0" fill="#fafafa" stroke="#222" stroke-width="1.4"/><path d="M340.0,808.5 l3.0,4.2 l-4.8,0 z" fill="#222"/><line x1="340.0" y1="779.4" x2="308.6" y2="462.8" stroke="#ffd54a" stroke-width="2.8" stroke-dasharray="7 5" marker-end="url(#ah_pass)"/><text x="324.3" y="616.1" font-family="Segoe UI,Arial,sans-serif" font-size="9.5" font-weight="700" fill="#ffd54a" text-anchor="middle" >pase al espacio (tarde = FdJ)</text><g><rect x="32" y="843.1999999999999" width="168" height="118" rx="7" fill="#15202b" fill-opacity="0.82" stroke="#3a4a5a" stroke-width="1"/><text x="42" y="857.1999999999999" font-family="Segoe UI,Arial" font-size="10" font-weight="800" fill="#9fb3c8">LEYENDA</text><line x1="44" y1="869.1999999999999" x2="70" y2="869.1999999999999" stroke="#ffd54a" stroke-width="3" stroke-dasharray="6 4"/><text x="78" y="872.1999999999999" font-family="Segoe UI,Arial" font-size="10.5" fill="#e6edf3">pase</text><line x1="44" y1="886.1999999999999" x2="70" y2="886.1999999999999" stroke="#ffffff" stroke-width="3"/><text x="78" y="889.1999999999999" font-family="Segoe UI,Arial" font-size="10.5" fill="#e6edf3">desmarque/carrera</text><circle cx="49" cy="903.1999999999999" r="6" fill="#1565c0"/><text x="78" y="906.1999999999999" font-family="Segoe UI,Arial" font-size="10.5" fill="#e6edf3">propio</text><circle cx="49" cy="920.1999999999999" r="6" fill="#c62828"/><text x="78" y="923.1999999999999" font-family="Segoe UI,Arial" font-size="10.5" fill="#e6edf3">rival</text><circle cx="49" cy="937.1999999999999" r="6" fill="#f5a623"/><text x="78" y="940.1999999999999" font-family="Segoe UI,Arial" font-size="10.5" fill="#e6edf3">comodín</text><circle cx="49" cy="954.1999999999999" r="6" fill="#ffd54a"/><text x="78" y="957.1999999999999" font-family="Segoe UI,Arial" font-size="10.5" fill="#e6edf3">zona</text></g></svg>