<svg xmlns="http://www.w3.org/2000/svg" viewBox="0 0 680 1005" width="680" height="1005" font-family="Segoe UI,Arial,sans-serif"><defs><linearGradient id="sky" x1="0" y1="0" x2="0" y2="1"><stop offset="0" stop-color="#2f8a3e"/><stop offset="1" stop-color="#2b8139"/></linearGradient><marker id="ah_pass" viewBox="0 0 10 10" refX="8" refY="5" markerWidth="6.5" markerHeight="6.5" orient="auto-start-reverse"><path d="M0,0 L10,5 L0,10 z" fill="#ffd54a"/></marker><marker id="ah_run" viewBox="0 0 10 10" refX="8" refY="5" markerWidth="6.5" markerHeight="6.5" orient="auto-start-reverse"><path d="M0,0 L10,5 L0,10 z" fill="#ffffff"/></marker><marker id="ah_drive" viewBox="0 0 10 10" refX="8" refY="5" markerWidth="6.5" markerHeight="6.5" orient="auto-start-reverse"><path d="M0,0 L10,5 L0,10 z" fill="#7ee0ff"/></marker><marker id="ah_white" viewBox="0 0 10 10" refX="8" refY="5" markerWidth="6.5" markerHeight="6.5" orient="auto-start-reverse"><path d="M0,0 L10,5 L0,10 z" fill="#ffffff"/></marker></defs><rect x="0.0" y="0.0" width="680.0" height="1005.2" fill="#15202b"/><rect x="26.0" y="76.0" width="628.0" height="88.4" fill="#2f8a3e"/><rect x="26.0" y="163.9" width="628.0" height="88.4" fill="#2a7d36"/><rect x="26.0" y="251.8" width="628.0" height="88.4" fill="#2f8a3e"/><rect x="26.0" y="339.8" width="628.0" height="88.4" fill="#2a7d36"/><rect x="26.0" y="427.7" width="628.0" height="88.4" fill="#2f8a3e"/><rect x="26.0" y="515.6" width="628.0" height="88.4" fill="#2a7d36"/><rect x="26.0" y="603.5" width="628.0" height="88.4" fill="#2f8a3e"/><rect x="26.0" y="691.4" width="628.0" height="88.4" fill="#2a7d36"/><rect x="26.0" y="779.4" width="628.0" height="88.4" fill="#2f8a3e"/><rect x="26.0" y="867.3" width="628.0" height="88.4" fill="#2a7d36"/><rect x="26.0" y="76.0" width="628.0" height="879.2" fill="none" stroke="#ffffff" stroke-width="2.4"/><path d="M157.9,955.2 L157.9,665.1 L522.1,665.1 L522.1,955.2" fill="none" stroke="#ffffff" stroke-width="2.4"/><path d="M258.4,955.2 L258.4,858.5 L421.6,858.5 L421.6,955.2" fill="none" stroke="#ffffff" stroke-width="2.4"/><circle cx="340.0" cy="761.8" r="2.0" fill="#ffffff"/><rect x="311.7" y="955.2" width="56.5" height="4" fill="none" stroke="#ffffff" stroke-width="2"/><path d="M296.0,665.1 A57.5,57.5 0 0 0 384.0,665.1" fill="none" stroke="#ffffff" stroke-width="2.4"/><rect x="0.0" y="0.0" width="680.0" height="50.0" fill="#15202b"/><text x="340.0" y="24.0" font-family="Segoe UI,Arial,sans-serif" font-size="17" font-weight="800" fill="#ffffff" text-anchor="middle" >Tarea 2 — Rondo de salida orientada 3v1+2 (carriles)</text><text x="340.0" y="40.0" font-family="Segoe UI,Arial,sans-serif" font-size="11" font-weight="500" fill="#9fb3c8" text-anchor="middle" >6 jugadores · 25 × 20 m · 3 carriles verticales</text><rect x="0.0" y="981.2" width="680.0" height="24.0" fill="#15202b"/><text x="668.0" y="997.2" font-family="Segoe UI,Arial,sans-serif" font-size="10" font-weight="700" fill="#8aa0b6" text-anchor="end" >MISTER ÉLITE · Moisés Díaz</text><text x="12.0" y="997.2" font-family="Segoe UI,Arial,sans-serif" font-size="10" font-weight="600" fill="#7f93a8" text-anchor="start" >Sistema 1-4-4-2</text><g opacity="0.9"><line x1="628.9" y1="181.5" x2="628.9" y2="-29.5" stroke="#ffffff" stroke-width="2.5" marker-end="url(#ah_white)"/><text x="622.9" y="76.0" font-family="Segoe UI,Arial" font-size="9" fill="#ffffff" text-anchor="end" transform="rotate(-90 622.9 76.0)">ATAQUE</text></g><path d="M233.2,772.4 l5,11 l-10,0 z" fill="#ff9800" stroke="#7a4f00" stroke-width="1"/><path d="M440.5,772.4 l5,11 l-10,0 z" fill="#ff9800" stroke="#7a4f00" stroke-width="1"/><path d="M233.2,508.6 l5,11 l-10,0 z" fill="#ff9800" stroke="#7a4f00" stroke-width="1"/><path d="M440.5,508.6 l5,11 l-10,0 z" fill="#ff9800" stroke="#7a4f00" stroke-width="1"/><path d="M233.2,244.8 l5,11 l-10,0 z" fill="#ff9800" stroke="#7a4f00" stroke-width="1"/><path d="M440.5,244.8 l5,11 l-10,0 z" fill="#ff9800" stroke="#7a4f00" stroke-width="1"/><rect x="26.0" y="216.7" width="207.2" height="597.9" rx="6" fill="#9fb3c8" fill-opacity="0.06" stroke="#9fb3c8" stroke-width="2" stroke-dasharray="6 5"/><text x="129.6" y="518.6" font-family="Segoe UI,Arial,sans-serif" font-size="10.5" font-weight="700" fill="#fff" text-anchor="middle" >carril ext.</text><rect x="233.2" y="216.7" width="207.2" height="597.9" rx="6" fill="#9fb3c8" fill-opacity="0.06" stroke="#9fb3c8" stroke-width="2" stroke-dasharray="6 5"/><text x="336.9" y="518.6" font-family="Segoe UI,Arial,sans-serif" font-size="10.5" font-weight="700" fill="#fff" text-anchor="middle" >carril central</text><rect x="440.5" y="216.7" width="213.5" height="597.9" rx="6" fill="#9fb3c8" fill-opacity="0.06" stroke="#9fb3c8" stroke-width="2" stroke-dasharray="6 5"/><text x="547.2" y="518.6" font-family="Segoe UI,Arial,sans-serif" font-size="10.5" font-weight="700" fill="#fff" text-anchor="middle" >carril ext.</text><g><circle cx="151.6" cy="638.7" r="15" fill="#1565c0" stroke="#0d3c75" stroke-width="2.5"/><text x="151.6" y="642.7" font-family="Segoe UI,Arial" font-size="11.5" font-weight="800" fill="#fff" text-anchor="middle">DFC1</text></g><g><circle cx="340.0" cy="673.9" r="15" fill="#1565c0" stroke="#0d3c75" stroke-width="2.5"/><text x="340.0" y="677.9" font-family="Segoe UI,Arial" font-size="11.5" font-weight="800" fill="#fff" text-anchor="middle">MC</text></g><text x="340.0" y="654.9" font-family="Segoe UI,Arial,sans-serif" font-size="9.5" font-weight="600" fill="#fff5cc" text-anchor="middle" >ofrece línea</text><g><circle cx="528.4" cy="638.7" r="15" fill="#1565c0" stroke="#0d3c75" stroke-width="2.5"/><text x="528.4" y="642.7" font-family="Segoe UI,Arial" font-size="11.5" font-weight="800" fill="#fff" text-anchor="middle">DFC2</text></g><g><circle cx="101.4" cy="374.9" r="15" fill="#1565c0" stroke="#0d3c75" stroke-width="2.5"/><text x="101.4" y="378.9" font-family="Segoe UI,Arial" font-size="11.5" font-weight="800" fill="#fff" text-anchor="middle">LI</text></g><text x="101.4" y="355.9" font-family="Segoe UI,Arial,sans-serif" font-size="9.5" font-weight="600" fill="#fff5cc" text-anchor="middle" >apoyo fijo</text><g><circle cx="578.6" cy="374.9" r="15" fill="#1565c0" stroke="#0d3c75" stroke-width="2.5"/><text x="578.6" y="378.9" font-family="Segoe UI,Arial" font-size="11.5" font-weight="800" fill="#fff" text-anchor="middle">LD</text></g><text x="578.6" y="355.9" font-family="Segoe UI,Arial,sans-serif" font-size="9.5" font-weight="600" fill="#fff5cc" text-anchor="middle" >apoyo fijo</text><g><circle cx="277.2" cy="498.0" r="15" fill="#c62828" stroke="#7f1414" stroke-width="2.5"/><text x="277.2" y="502.0" font-family="Segoe UI,Arial" font-size="11.5" font-weight="800" fill="#fff" text-anchor="middle">DC</text></g><text x="277.2" y="479.0" font-family="Segoe UI,Arial,sans-serif" font-size="9.5" font-weight="600" fill="#fff5cc" text-anchor="middle" >cierra un lado</text><circle cx="151.6" cy="638.7" r="6.0" fill="#fafafa" stroke="#222" stroke-width="1.4"/><path d="M151.6,632.7 l3.0,4.2 l-4.8,0 z" fill="#222"/><line x1="164.2" y1="603.5" x2="233.2" y2="533.2" stroke="#7ee0ff" stroke-width="2.8" marker-end="url(#ah_drive)"/><text x="198.7" y="563.4" font-family="Segoe UI,Arial,sans-serif" font-size="9.5" font-weight="700" fill="#7ee0ff" text-anchor="middle" >fija al presionador</text><line x1="233.2" y1="533.2" x2="340.0" y2="638.7" stroke="#ffd54a" stroke-width="2.8" stroke-dasharray="7 5" marker-end="url(#ah_pass)"/><line x1="340.0" y1="673.9" x2="553.5" y2="410.1" stroke="#ffd54a" stroke-width="2.8" stroke-dasharray="7 5" marker-end="url(#ah_pass)"/><text x="446.8" y="537.0" font-family="Segoe UI,Arial,sans-serif" font-size="9.5" font-weight="700" fill="#ffd54a" text-anchor="middle" >salida al carril opuesto</text><text x="340.0" y="849.7" font-family="Segoe UI,Arial,sans-serif" font-size="10" font-weight="600" fill="#fff5cc" text-anchor="middle" >Fijar antes de pasar · cuerpo orientado · 2 toques máx.</text><g><rect x="32" y="860.1999999999999" width="168" height="101" rx="7" fill="#15202b" fill-opacity="0.82" stroke="#3a4a5a" stroke-width="1"/><text x="42" y="874.1999999999999" font-family="Segoe UI,Arial" font-size="10" font-weight="800" fill="#9fb3c8">LEYENDA</text><line x1="44" y1="886.1999999999999" x2="70" y2="886.1999999999999" stroke="#ffd54a" stroke-width="3" stroke-dasharray="6 4"/><text x="78" y="889.1999999999999" font-family="Segoe UI,Arial" font-size="10.5" fill="#e6edf3">pase</text><line x1="44" y1="903.1999999999999" x2="70" y2="903.1999999999999" stroke="#7ee0ff" stroke-width="3"/><text x="78" y="906.1999999999999" font-family="Segoe UI,Arial" font-size="10.5" fill="#e6edf3">conducción</text><circle cx="49" cy="920.1999999999999" r="6" fill="#1565c0"/><text x="78" y="923.1999999999999" font-family="Segoe UI,Arial" font-size="10.5" fill="#e6edf3">propio</text><circle cx="49" cy="937.1999999999999" r="6" fill="#c62828"/><text x="78" y="940.1999999999999" font-family="Segoe UI,Arial" font-size="10.5" fill="#e6edf3">rival</text><circle cx="49" cy="954.1999999999999" r="6" fill="#ffd54a"/><text x="78" y="957.1999999999999" font-family="Segoe UI,Arial" font-size="10.5" fill="#e6edf3">zona</text></g></svg>