<svg xmlns="http://www.w3.org/2000/svg" viewBox="0 0 680 1005" width="680" height="1005" font-family="Segoe UI,Arial,sans-serif"><defs><linearGradient id="sky" x1="0" y1="0" x2="0" y2="1"><stop offset="0" stop-color="#2f8a3e"/><stop offset="1" stop-color="#2b8139"/></linearGradient><marker id="ah_pass" viewBox="0 0 10 10" refX="8" refY="5" markerWidth="6.5" markerHeight="6.5" orient="auto-start-reverse"><path d="M0,0 L10,5 L0,10 z" fill="#ffd54a"/></marker><marker id="ah_run" viewBox="0 0 10 10" refX="8" refY="5" markerWidth="6.5" markerHeight="6.5" orient="auto-start-reverse"><path d="M0,0 L10,5 L0,10 z" fill="#ffffff"/></marker><marker id="ah_drive" viewBox="0 0 10 10" refX="8" refY="5" markerWidth="6.5" markerHeight="6.5" orient="auto-start-reverse"><path d="M0,0 L10,5 L0,10 z" fill="#7ee0ff"/></marker><marker id="ah_white" viewBox="0 0 10 10" refX="8" refY="5" markerWidth="6.5" markerHeight="6.5" orient="auto-start-reverse"><path d="M0,0 L10,5 L0,10 z" fill="#ffffff"/></marker></defs><rect x="0.0" y="0.0" width="680.0" height="1005.2" fill="#15202b"/><rect x="26.0" y="76.0" width="628.0" height="88.4" fill="#2f8a3e"/><rect x="26.0" y="163.9" width="628.0" height="88.4" fill="#2a7d36"/><rect x="26.0" y="251.8" width="628.0" height="88.4" fill="#2f8a3e"/><rect x="26.0" y="339.8" width="628.0" height="88.4" fill="#2a7d36"/><rect x="26.0" y="427.7" width="628.0" height="88.4" fill="#2f8a3e"/><rect x="26.0" y="515.6" width="628.0" height="88.4" fill="#2a7d36"/><rect x="26.0" y="603.5" width="628.0" height="88.4" fill="#2f8a3e"/><rect x="26.0" y="691.4" width="628.0" height="88.4" fill="#2a7d36"/><rect x="26.0" y="779.4" width="628.0" height="88.4" fill="#2f8a3e"/><rect x="26.0" y="867.3" width="628.0" height="88.4" fill="#2a7d36"/><rect x="26.0" y="76.0" width="628.0" height="879.2" fill="none" stroke="#ffffff" stroke-width="2.4"/><path d="M157.9,955.2 L157.9,665.1 L522.1,665.1 L522.1,955.2" fill="none" stroke="#ffffff" stroke-width="2.4"/><path d="M258.4,955.2 L258.4,858.5 L421.6,858.5 L421.6,955.2" fill="none" stroke="#ffffff" stroke-width="2.4"/><circle cx="340.0" cy="761.8" r="2.0" fill="#ffffff"/><rect x="311.7" y="955.2" width="56.5" height="4" fill="none" stroke="#ffffff" stroke-width="2"/><path d="M296.0,665.1 A57.5,57.5 0 0 0 384.0,665.1" fill="none" stroke="#ffffff" stroke-width="2.4"/><rect x="0.0" y="0.0" width="680.0" height="50.0" fill="#15202b"/><text x="340.0" y="24.0" font-family="Segoe UI,Arial,sans-serif" font-size="17" font-weight="800" fill="#ffffff" text-anchor="middle" >Tarea 2.1 — Subo-bajo: alturas del pivote</text><text x="340.0" y="40.0" font-family="Segoe UI,Arial,sans-serif" font-size="11" font-weight="500" fill="#9fb3c8" text-anchor="middle" >6 y 8 SIEMPRE en pasillos distintos  ·  filtrar al 10 arriba</text><rect x="0.0" y="981.2" width="680.0" height="24.0" fill="#15202b"/><text x="668.0" y="997.2" font-family="Segoe UI,Arial,sans-serif" font-size="10" font-weight="700" fill="#8aa0b6" text-anchor="end" >MISTER ÉLITE · Moisés Díaz</text><text x="12.0" y="997.2" font-family="Segoe UI,Arial,sans-serif" font-size="10" font-weight="600" fill="#7f93a8" text-anchor="start" >Sistema 1-4-2-3-1</text><g opacity="0.9"><line x1="628.9" y1="181.5" x2="628.9" y2="-29.5" stroke="#ffffff" stroke-width="2.5" marker-end="url(#ah_white)"/><text x="622.9" y="76.0" font-family="Segoe UI,Arial" font-size="9" fill="#ffffff" text-anchor="end" transform="rotate(-90 622.9 76.0)">ATAQUE</text></g><rect x="26.0" y="638.7" width="628.0" height="246.2" rx="6" fill="#ffd54a" fill-opacity="0.07" stroke="#ffd54a" stroke-width="2" stroke-dasharray="6 5"/><text x="340.0" y="764.8" font-family="Segoe UI,Arial,sans-serif" font-size="10.5" font-weight="700" fill="#fff" text-anchor="middle" >PASILLO BAJO (cobertura)</text><rect x="26.0" y="392.5" width="628.0" height="246.2" rx="6" fill="#ffd54a" fill-opacity="0.05" stroke="#ffd54a" stroke-width="2" stroke-dasharray="6 5"/><text x="340.0" y="518.6" font-family="Segoe UI,Arial,sans-serif" font-size="10.5" font-weight="700" fill="#fff" text-anchor="middle" >PASILLO MEDIO</text><rect x="26.0" y="146.3" width="628.0" height="246.2" rx="6" fill="#7ee0ff" fill-opacity="0.08" stroke="#7ee0ff" stroke-width="2" stroke-dasharray="6 5"/><text x="340.0" y="272.4" font-family="Segoe UI,Arial,sans-serif" font-size="10.5" font-weight="700" fill="#fff" text-anchor="middle" >PASILLO ALTO</text><g><circle cx="126.5" cy="779.4" r="15" fill="#1565c0" stroke="#0d3c75" stroke-width="2.5"/><text x="126.5" y="783.4" font-family="Segoe UI,Arial" font-size="11.5" font-weight="800" fill="#fff" text-anchor="middle">3</text></g><text x="126.5" y="760.4" font-family="Segoe UI,Arial,sans-serif" font-size="9.5" font-weight="600" fill="#fff5cc" text-anchor="middle" >LI</text><g><circle cx="277.2" cy="796.9" r="15" fill="#1565c0" stroke="#0d3c75" stroke-width="2.5"/><text x="277.2" y="800.9" font-family="Segoe UI,Arial" font-size="11.5" font-weight="800" fill="#fff" text-anchor="middle">5</text></g><text x="277.2" y="777.9" font-family="Segoe UI,Arial,sans-serif" font-size="9.5" font-weight="600" fill="#fff5cc" text-anchor="middle" >DFC</text><g><circle cx="402.8" cy="796.9" r="15" fill="#1565c0" stroke="#0d3c75" stroke-width="2.5"/><text x="402.8" y="800.9" font-family="Segoe UI,Arial" font-size="11.5" font-weight="800" fill="#fff" text-anchor="middle">4</text></g><text x="402.8" y="777.9" font-family="Segoe UI,Arial,sans-serif" font-size="9.5" font-weight="600" fill="#fff5cc" text-anchor="middle" >DFC</text><g><circle cx="553.5" cy="779.4" r="15" fill="#1565c0" stroke="#0d3c75" stroke-width="2.5"/><text x="553.5" y="783.4" font-family="Segoe UI,Arial" font-size="11.5" font-weight="800" fill="#fff" text-anchor="middle">2</text></g><text x="553.5" y="760.4" font-family="Segoe UI,Arial,sans-serif" font-size="9.5" font-weight="600" fill="#fff5cc" text-anchor="middle" >LD</text><g><circle cx="264.6" cy="726.6" r="15" fill="#1565c0" stroke="#0d3c75" stroke-width="2.5"/><text x="264.6" y="730.6" font-family="Segoe UI,Arial" font-size="11.5" font-weight="800" fill="#fff" text-anchor="middle">6</text></g><text x="264.6" y="707.6" font-family="Segoe UI,Arial,sans-serif" font-size="9.5" font-weight="600" fill="#fff5cc" text-anchor="middle" >cubre</text><g><circle cx="415.4" cy="533.2" r="15" fill="#1565c0" stroke="#0d3c75" stroke-width="2.5"/><text x="415.4" y="537.2" font-family="Segoe UI,Arial" font-size="11.5" font-weight="800" fill="#fff" text-anchor="middle">8</text></g><text x="415.4" y="514.2" font-family="Segoe UI,Arial,sans-serif" font-size="9.5" font-weight="600" fill="#fff5cc" text-anchor="middle" >enlace</text><g><circle cx="340.0" cy="269.4" r="15" fill="#1565c0" stroke="#0d3c75" stroke-width="2.5"/><text x="340.0" y="273.4" font-family="Segoe UI,Arial" font-size="11.5" font-weight="800" fill="#fff" text-anchor="middle">10</text></g><text x="340.0" y="250.4" font-family="Segoe UI,Arial,sans-serif" font-size="9.5" font-weight="600" fill="#fff5cc" text-anchor="middle" >filtrar aqui</text><circle cx="415.4" cy="506.8" r="6.0" fill="#fafafa" stroke="#222" stroke-width="1.4"/><path d="M415.4,500.8 l3.0,4.2 l-4.8,0 z" fill="#222"/><g><circle cx="340.0" cy="603.5" r="15" fill="#c62828" stroke="#7f1414" stroke-width="2.5"/><text x="340.0" y="607.5" font-family="Segoe UI,Arial" font-size="11.5" font-weight="800" fill="#fff" text-anchor="middle">x</text></g><g><circle cx="277.2" cy="374.9" r="15" fill="#c62828" stroke="#7f1414" stroke-width="2.5"/><text x="277.2" y="378.9" font-family="Segoe UI,Arial" font-size="11.5" font-weight="800" fill="#fff" text-anchor="middle">x</text></g><g><circle cx="427.9" cy="374.9" r="15" fill="#c62828" stroke="#7f1414" stroke-width="2.5"/><text x="427.9" y="378.9" font-family="Segoe UI,Arial" font-size="11.5" font-weight="800" fill="#fff" text-anchor="middle">x</text></g><line x1="415.4" y1="480.4" x2="346.3" y2="304.6" stroke="#ffd54a" stroke-width="2.8" stroke-dasharray="7 5" marker-end="url(#ah_pass)"/><text x="380.8" y="387.5" font-family="Segoe UI,Arial,sans-serif" font-size="9.5" font-weight="700" fill="#ffd54a" text-anchor="middle" >al 10 (pasillo alto)</text><text x="340.0" y="867.3" font-family="Segoe UI,Arial,sans-serif" font-size="10" font-weight="600" fill="#fff5cc" text-anchor="middle" >Si 6 y 8 pisan el mismo pasillo = perdida</text><g><rect x="32" y="894.1999999999999" width="168" height="67" rx="7" fill="#15202b" fill-opacity="0.82" stroke="#3a4a5a" stroke-width="1"/><text x="42" y="908.1999999999999" font-family="Segoe UI,Arial" font-size="10" font-weight="800" fill="#9fb3c8">LEYENDA</text><line x1="44" y1="920.1999999999999" x2="70" y2="920.1999999999999" stroke="#ffd54a" stroke-width="3" stroke-dasharray="6 4"/><text x="78" y="923.1999999999999" font-family="Segoe UI,Arial" font-size="10.5" fill="#e6edf3">pase</text><circle cx="49" cy="937.1999999999999" r="6" fill="#1565c0"/><text x="78" y="940.1999999999999" font-family="Segoe UI,Arial" font-size="10.5" fill="#e6edf3">propio</text><circle cx="49" cy="954.1999999999999" r="6" fill="#c62828"/><text x="78" y="957.1999999999999" font-family="Segoe UI,Arial" font-size="10.5" fill="#e6edf3">rival</text></g></svg>