<svg xmlns="http://www.w3.org/2000/svg" viewBox="0 0 680 1005" width="680" height="1005" font-family="Segoe UI,Arial,sans-serif"><defs><linearGradient id="sky" x1="0" y1="0" x2="0" y2="1"><stop offset="0" stop-color="#2f8a3e"/><stop offset="1" stop-color="#2b8139"/></linearGradient><marker id="ah_pass" viewBox="0 0 10 10" refX="8" refY="5" markerWidth="6.5" markerHeight="6.5" orient="auto-start-reverse"><path d="M0,0 L10,5 L0,10 z" fill="#ffd54a"/></marker><marker id="ah_run" viewBox="0 0 10 10" refX="8" refY="5" markerWidth="6.5" markerHeight="6.5" orient="auto-start-reverse"><path d="M0,0 L10,5 L0,10 z" fill="#ffffff"/></marker><marker id="ah_drive" viewBox="0 0 10 10" refX="8" refY="5" markerWidth="6.5" markerHeight="6.5" orient="auto-start-reverse"><path d="M0,0 L10,5 L0,10 z" fill="#7ee0ff"/></marker><marker id="ah_white" viewBox="0 0 10 10" refX="8" refY="5" markerWidth="6.5" markerHeight="6.5" orient="auto-start-reverse"><path d="M0,0 L10,5 L0,10 z" fill="#ffffff"/></marker></defs><rect x="0.0" y="0.0" width="680.0" height="1005.2" fill="#15202b"/><rect x="26.0" y="76.0" width="628.0" height="88.4" fill="#2f8a3e"/><rect x="26.0" y="163.9" width="628.0" height="88.4" fill="#2a7d36"/><rect x="26.0" y="251.8" width="628.0" height="88.4" fill="#2f8a3e"/><rect x="26.0" y="339.8" width="628.0" height="88.4" fill="#2a7d36"/><rect x="26.0" y="427.7" width="628.0" height="88.4" fill="#2f8a3e"/><rect x="26.0" y="515.6" width="628.0" height="88.4" fill="#2a7d36"/><rect x="26.0" y="603.5" width="628.0" height="88.4" fill="#2f8a3e"/><rect x="26.0" y="691.4" width="628.0" height="88.4" fill="#2a7d36"/><rect x="26.0" y="779.4" width="628.0" height="88.4" fill="#2f8a3e"/><rect x="26.0" y="867.3" width="628.0" height="88.4" fill="#2a7d36"/><rect x="26.0" y="76.0" width="628.0" height="879.2" fill="none" stroke="#ffffff" stroke-width="2.4"/><path d="M157.9,76.0 L157.9,366.1 L522.1,366.1 L522.1,76.0" fill="none" stroke="#ffffff" stroke-width="2.4"/><path d="M258.4,76.0 L258.4,172.7 L421.6,172.7 L421.6,76.0" fill="none" stroke="#ffffff" stroke-width="2.4"/><circle cx="340.0" cy="269.4" r="2.0" fill="#ffffff"/><rect x="311.7" y="72.0" width="56.5" height="4" fill="none" stroke="#ffffff" stroke-width="2"/><path d="M296.0,366.1 A57.5,57.5 0 0 1 384.0,366.1" fill="none" stroke="#ffffff" stroke-width="2.4"/><rect x="0.0" y="0.0" width="680.0" height="50.0" fill="#15202b"/><text x="340.0" y="24.0" font-family="Segoe UI,Arial,sans-serif" font-size="17" font-weight="800" fill="#ffffff" text-anchor="middle" >Tarea 21 — Conexión del interior creativo (10)</text><text x="340.0" y="40.0" font-family="Segoe UI,Arial,sans-serif" font-size="11" font-weight="500" fill="#9fb3c8" text-anchor="middle" >recibe orientado entre líneas y conecta con los 2 DC</text><rect x="0.0" y="981.2" width="680.0" height="24.0" fill="#15202b"/><text x="668.0" y="997.2" font-family="Segoe UI,Arial,sans-serif" font-size="10" font-weight="700" fill="#8aa0b6" text-anchor="end" >MISTER ÉLITE · Moisés Díaz</text><text x="12.0" y="997.2" font-family="Segoe UI,Arial,sans-serif" font-size="10" font-weight="600" fill="#7f93a8" text-anchor="start" >Sistema 1-5-3-2</text><g opacity="0.9"><line x1="628.9" y1="1060.7" x2="628.9" y2="849.7" stroke="#ffffff" stroke-width="2.5" marker-end="url(#ah_white)"/><text x="622.9" y="955.2" font-family="Segoe UI,Arial" font-size="9" fill="#ffffff" text-anchor="end" transform="rotate(-90 622.9 955.2)">ATAQUE</text></g><g><circle cx="340.0" cy="814.5" r="15" fill="#1565c0" stroke="#0d3c75" stroke-width="2.5"/><text x="340.0" y="818.5" font-family="Segoe UI,Arial" font-size="11.5" font-weight="800" fill="#fff" text-anchor="middle">8</text></g><text x="340.0" y="795.5" font-family="Segoe UI,Arial,sans-serif" font-size="9.5" font-weight="600" fill="#fff5cc" text-anchor="middle" >busca al 10</text><circle cx="340.0" cy="779.4" r="6.0" fill="#fafafa" stroke="#222" stroke-width="1.4"/><path d="M340.0,773.4 l3.0,4.2 l-4.8,0 z" fill="#222"/><rect x="189.3" y="480.4" width="301.4" height="193.4" rx="6" fill="#ffd54a" fill-opacity="0.12" stroke="#ffd54a" stroke-width="2" stroke-dasharray="6 5"/><text x="239.5" y="585.9" font-family="Segoe UI,Arial,sans-serif" font-size="9" font-weight="600" fill="#fff5cc" text-anchor="middle" >franja entrelíneas</text><g><circle cx="277.2" cy="427.7" r="15" fill="#c62828" stroke="#7f1414" stroke-width="2.5"/><text x="277.2" y="431.7" font-family="Segoe UI,Arial" font-size="11.5" font-weight="800" fill="#fff" text-anchor="middle">DEF</text></g><g><circle cx="415.4" cy="427.7" r="15" fill="#c62828" stroke="#7f1414" stroke-width="2.5"/><text x="415.4" y="431.7" font-family="Segoe UI,Arial" font-size="11.5" font-weight="800" fill="#fff" text-anchor="middle">DEF</text></g><g><circle cx="365.1" cy="585.9" r="15" fill="#1565c0" stroke="#0d3c75" stroke-width="2.5"/><text x="365.1" y="589.9" font-family="Segoe UI,Arial" font-size="11.5" font-weight="800" fill="#fff" text-anchor="middle">10</text></g><text x="365.1" y="566.9" font-family="Segoe UI,Arial,sans-serif" font-size="9.5" font-weight="600" fill="#fff5cc" text-anchor="middle" >recibe orientado</text><g><circle cx="289.8" cy="322.2" r="15" fill="#1565c0" stroke="#0d3c75" stroke-width="2.5"/><text x="289.8" y="326.2" font-family="Segoe UI,Arial" font-size="11.5" font-weight="800" fill="#fff" text-anchor="middle">9</text></g><text x="289.8" y="349.2" font-family="Segoe UI,Arial,sans-serif" font-size="9.5" font-weight="600" fill="#fff5cc" text-anchor="middle" >pared</text><g><circle cx="453.0" cy="304.6" r="15" fill="#1565c0" stroke="#0d3c75" stroke-width="2.5"/><text x="453.0" y="308.6" font-family="Segoe UI,Arial" font-size="11.5" font-weight="800" fill="#fff" text-anchor="middle">11</text></g><text x="453.0" y="331.6" font-family="Segoe UI,Arial,sans-serif" font-size="9.5" font-weight="600" fill="#fff5cc" text-anchor="middle" >rompe</text><line x1="340.0" y1="779.4" x2="358.8" y2="638.7" stroke="#ffd54a" stroke-width="2.8" stroke-dasharray="7 5" marker-end="url(#ah_pass)"/><text x="349.4" y="704.0" font-family="Segoe UI,Arial,sans-serif" font-size="9.5" font-weight="700" fill="#ffd54a" text-anchor="middle" >1</text><line x1="352.6" y1="550.8" x2="308.6" y2="357.3" stroke="#ffd54a" stroke-width="2.8" stroke-dasharray="7 5" marker-end="url(#ah_pass)"/><text x="330.6" y="449.1" font-family="Segoe UI,Arial,sans-serif" font-size="9.5" font-weight="700" fill="#ffd54a" text-anchor="middle" >2 pared</text><line x1="302.3" y1="339.8" x2="365.1" y2="498.0" stroke="#ffd54a" stroke-width="2.8" stroke-dasharray="7 5" marker-end="url(#ah_pass)"/><line x1="446.8" y1="357.3" x2="478.2" y2="199.1" stroke="#ffffff" stroke-width="2.8" marker-end="url(#ah_run)"/><text x="462.5" y="273.2" font-family="Segoe UI,Arial,sans-serif" font-size="9.5" font-weight="700" fill="#ffffff" text-anchor="middle" >rompe</text><line x1="377.7" y1="550.8" x2="465.6" y2="251.8" stroke="#ffd54a" stroke-width="2.8" stroke-dasharray="7 5" marker-end="url(#ah_pass)"/><text x="421.6" y="396.3" font-family="Segoe UI,Arial,sans-serif" font-size="9.5" font-weight="700" fill="#ffd54a" text-anchor="middle" >3 filtrado</text><g><rect x="32" y="860.1999999999999" width="168" height="101" rx="7" fill="#15202b" fill-opacity="0.82" stroke="#3a4a5a" stroke-width="1"/><text x="42" y="874.1999999999999" font-family="Segoe UI,Arial" font-size="10" font-weight="800" fill="#9fb3c8">LEYENDA</text><circle cx="49" cy="886.1999999999999" r="6" fill="#1565c0"/><text x="78" y="889.1999999999999" font-family="Segoe UI,Arial" font-size="10.5" fill="#e6edf3">propio</text><circle cx="49" cy="903.1999999999999" r="6" fill="#c62828"/><text x="78" y="906.1999999999999" font-family="Segoe UI,Arial" font-size="10.5" fill="#e6edf3">rival</text><line x1="44" y1="920.1999999999999" x2="70" y2="920.1999999999999" stroke="#ffd54a" stroke-width="3" stroke-dasharray="6 4"/><text x="78" y="923.1999999999999" font-family="Segoe UI,Arial" font-size="10.5" fill="#e6edf3">pase</text><line x1="44" y1="937.1999999999999" x2="70" y2="937.1999999999999" stroke="#ffffff" stroke-width="3"/><text x="78" y="940.1999999999999" font-family="Segoe UI,Arial" font-size="10.5" fill="#e6edf3">desmarque/carrera</text><circle cx="49" cy="954.1999999999999" r="6" fill="#ffd54a"/><text x="78" y="957.1999999999999" font-family="Segoe UI,Arial" font-size="10.5" fill="#e6edf3">zona</text></g></svg>