<svg xmlns="http://www.w3.org/2000/svg" viewBox="0 0 760 380" width="760" height="380" font-family="Segoe UI,Arial,sans-serif"><defs><linearGradient id="bg" x1="0" y1="0" x2="0.3" y2="1"><stop offset="0" stop-color="#0f2438"/><stop offset="1" stop-color="#0c1b2a"/></linearGradient></defs><rect width="760" height="380" fill="url(#bg)"/><rect x="0" y="0" width="760" height="54" fill="#0c1b2a"/><rect x="0" y="0" width="6" height="54" fill="#f7c948"/><text x="20.0" y="26.0" font-family="Segoe UI,Arial,sans-serif" font-size="18" font-weight="800" fill="#eaf1f8" text-anchor="start" >Puesta a punto (tapering) hacia el debut</text><text x="20.0" y="44.0" font-family="Segoe UI,Arial,sans-serif" font-size="11.5" font-weight="500" fill="#9fb3c8" text-anchor="start" >baja el VOLUMEN ~40-60 % y MANTÉN la intensidad: así llegas fresco sin perder forma</text><text x="748.0" y="372.0" font-family="Segoe UI,Arial,sans-serif" font-size="10" font-weight="700" fill="#8aa0b6" text-anchor="end" >MISTER ÉLITE · Moisés Díaz</text><text x="12.0" y="372.0" font-family="Segoe UI,Arial,sans-serif" font-size="10" font-weight="600" fill="#7f93a8" text-anchor="start" >Pretemporada · MISTER ÉLITE</text><line x1="54.0" y1="76.0" x2="54.0" y2="334.0" stroke="#23415c" stroke-width="1.4" opacity="1"/><line x1="54.0" y1="334.0" x2="736.0" y2="334.0" stroke="#23415c" stroke-width="1.4" opacity="1"/><text x="16.0" y="205.0" font-family="Segoe UI,Arial,sans-serif" font-size="11" font-weight="700" fill="#9fb3c8" text-anchor="middle" transform="rotate(-90,16,205)">% de la carga</text><text x="54.0" y="350.0" font-family="Segoe UI,Arial,sans-serif" font-size="9.5" font-weight="600" fill="#9fb3c8" text-anchor="middle" >MD-9</text><text x="151.4" y="350.0" font-family="Segoe UI,Arial,sans-serif" font-size="9.5" font-weight="600" fill="#9fb3c8" text-anchor="middle" >MD-7</text><text x="248.9" y="350.0" font-family="Segoe UI,Arial,sans-serif" font-size="9.5" font-weight="600" fill="#9fb3c8" text-anchor="middle" >MD-5</text><text x="346.3" y="350.0" font-family="Segoe UI,Arial,sans-serif" font-size="9.5" font-weight="600" fill="#9fb3c8" text-anchor="middle" >MD-4</text><text x="443.7" y="350.0" font-family="Segoe UI,Arial,sans-serif" font-size="9.5" font-weight="600" fill="#9fb3c8" text-anchor="middle" >MD-3</text><text x="541.1" y="350.0" font-family="Segoe UI,Arial,sans-serif" font-size="9.5" font-weight="600" fill="#9fb3c8" text-anchor="middle" >MD-2</text><text x="638.6" y="350.0" font-family="Segoe UI,Arial,sans-serif" font-size="9.5" font-weight="600" fill="#9fb3c8" text-anchor="middle" >MD-1</text><text x="736.0" y="350.0" font-family="Segoe UI,Arial,sans-serif" font-size="9.5" font-weight="600" fill="#9fb3c8" text-anchor="middle" >DEBUT</text><path d="M54.0,101.8 C70.2,105.2 119.0,113.8 151.4,122.4 C183.9,131.0 216.4,141.8 248.9,153.4 C281.3,165.0 313.8,181.3 346.3,192.1 C378.8,202.8 411.2,209.7 443.7,217.9 C476.2,226.1 508.7,234.7 541.1,241.1 C573.6,247.6 606.1,253.2 638.6,256.6 C671.0,260.0 719.8,260.9 736.0,261.8 L736.0,334.0 L54.0,334.0 Z" fill="#f7c948" stroke="none" stroke-width="0" opacity="0.12"/><path d="M54.0,101.8 C70.2,105.2 119.0,113.8 151.4,122.4 C183.9,131.0 216.4,141.8 248.9,153.4 C281.3,165.0 313.8,181.3 346.3,192.1 C378.8,202.8 411.2,209.7 443.7,217.9 C476.2,226.1 508.7,234.7 541.1,241.1 C573.6,247.6 606.1,253.2 638.6,256.6 C671.0,260.0 719.8,260.9 736.0,261.8" fill="none" stroke="#f7c948" stroke-width="3" opacity="1"/><circle cx="54.0" cy="101.8" r="3.4" fill="#0c1b2a" stroke="#f7c948" stroke-width="2.2"/><circle cx="151.4" cy="122.4" r="3.4" fill="#0c1b2a" stroke="#f7c948" stroke-width="2.2"/><circle cx="248.9" cy="153.4" r="3.4" fill="#0c1b2a" stroke="#f7c948" stroke-width="2.2"/><circle cx="346.3" cy="192.1" r="3.4" fill="#0c1b2a" stroke="#f7c948" stroke-width="2.2"/><circle cx="443.7" cy="217.9" r="3.4" fill="#0c1b2a" stroke="#f7c948" stroke-width="2.2"/><circle cx="541.1" cy="241.1" r="3.4" fill="#0c1b2a" stroke="#f7c948" stroke-width="2.2"/><circle cx="638.6" cy="256.6" r="3.4" fill="#0c1b2a" stroke="#f7c948" stroke-width="2.2"/><circle cx="736.0" cy="261.8" r="3.4" fill="#0c1b2a" stroke="#f7c948" stroke-width="2.2"/><path d="M54.0,148.2 C70.2,147.8 119.0,145.7 151.4,145.7 C183.9,145.7 216.4,148.7 248.9,148.2 C281.3,147.8 313.8,143.1 346.3,143.1 C378.8,143.1 411.2,147.8 443.7,148.2 C476.2,148.7 508.7,144.8 541.1,145.7 C573.6,146.5 606.1,160.7 638.6,153.4 C671.0,146.1 719.8,110.4 736.0,101.8" fill="none" stroke="#1d6fb8" stroke-width="2.6" opacity="1" stroke-dasharray="6 5"/><circle cx="54.0" cy="148.2" r="3.0" fill="#0c1b2a" stroke="#1d6fb8" stroke-width="2"/><circle cx="151.4" cy="145.7" r="3.0" fill="#0c1b2a" stroke="#1d6fb8" stroke-width="2"/><circle cx="248.9" cy="148.2" r="3.0" fill="#0c1b2a" stroke="#1d6fb8" stroke-width="2"/><circle cx="346.3" cy="143.1" r="3.0" fill="#0c1b2a" stroke="#1d6fb8" stroke-width="2"/><circle cx="443.7" cy="148.2" r="3.0" fill="#0c1b2a" stroke="#1d6fb8" stroke-width="2"/><circle cx="541.1" cy="145.7" r="3.0" fill="#0c1b2a" stroke="#1d6fb8" stroke-width="2"/><circle cx="638.6" cy="153.4" r="3.0" fill="#0c1b2a" stroke="#1d6fb8" stroke-width="2"/><circle cx="736.0" cy="101.8" r="3.0" fill="#0c1b2a" stroke="#1d6fb8" stroke-width="2"/><line x1="62.0" y1="84.0" x2="84.0" y2="84.0" stroke="#f7c948" stroke-width="3" opacity="1"/><text x="90.0" y="88.0" font-family="Segoe UI,Arial,sans-serif" font-size="10" font-weight="700" fill="#f7c948" text-anchor="start" >volumen</text><line x1="202.0" y1="84.0" x2="224.0" y2="84.0" stroke="#1d6fb8" stroke-width="2.6" opacity="1" stroke-dasharray="6 5"/><text x="230.0" y="88.0" font-family="Segoe UI,Arial,sans-serif" font-size="10" font-weight="700" fill="#1d6fb8" text-anchor="start" >intensidad</text></svg>